<?xml version="1.0" encoding="UTF-8" standalone="no"?>
<!-- Created with Inkscape (http://www.inkscape.org/) -->

<svg
   xmlns:dc="http://purl.org/dc/elements/1.1/"
   xmlns:cc="http://creativecommons.org/ns#"
   xmlns:rdf="http://www.w3.org/1999/02/22-rdf-syntax-ns#"
   xmlns:svg="http://www.w3.org/2000/svg"
   xmlns="http://www.w3.org/2000/svg"
   xmlns:xlink="http://www.w3.org/1999/xlink"
   xmlns:sodipodi="http://sodipodi.sourceforge.net/DTD/sodipodi-0.dtd"
   xmlns:inkscape="http://www.inkscape.org/namespaces/inkscape"
   width="586.19781"
   height="535.03125"
   id="svg2"
   version="1.1"
   inkscape:version="0.92.4 (unknown)"
   sodipodi:docname="AN-normal-stim.svg">
  <defs
     id="defs4">
    <linearGradient
       inkscape:collect="always"
       id="linearGradient4715">
      <stop
         style="stop-color:#00ef00;stop-opacity:1;"
         offset="0"
         id="stop4711" />
      <stop
         style="stop-color:#00ef00;stop-opacity:0;"
         offset="1"
         id="stop4713" />
    </linearGradient>
    <linearGradient
       inkscape:collect="always"
       id="linearGradient4615">
      <stop
         style="stop-color:#1e00ff;stop-opacity:1;"
         offset="0"
         id="stop4611" />
      <stop
         style="stop-color:#1e00ff;stop-opacity:0;"
         offset="1"
         id="stop4613" />
    </linearGradient>
    <linearGradient
       inkscape:collect="always"
       id="linearGradient5656">
      <stop
         style="stop-color:#ff0000;stop-opacity:1;"
         offset="0"
         id="stop5658" />
      <stop
         style="stop-color:#ff0000;stop-opacity:0;"
         offset="1"
         id="stop5660" />
    </linearGradient>
    <linearGradient
       inkscape:collect="always"
       xlink:href="#linearGradient5656"
       id="linearGradient5666"
       x1="83.706581"
       y1="380.01785"
       x2="256.13843"
       y2="380.01785"
       gradientUnits="userSpaceOnUse"
       gradientTransform="matrix(1,0,0,0.45839072,-8,195.82119)" />
    <linearGradient
       inkscape:collect="always"
       xlink:href="#linearGradient4615"
       id="linearGradient4617"
       x1="83.706584"
       y1="270.91046"
       x2="256.13844"
       y2="270.91046"
       gradientUnits="userSpaceOnUse"
       gradientTransform="translate(-4,-10)" />
    <linearGradient
       inkscape:collect="always"
       xlink:href="#linearGradient4715"
       id="linearGradient4717"
       x1="75.646746"
       y1="445.19473"
       x2="248.0786"
       y2="445.19473"
       gradientUnits="userSpaceOnUse"
       gradientTransform="translate(4,46)" />
  </defs>
  <sodipodi:namedview
     id="base"
     pagecolor="#ffffff"
     bordercolor="#666666"
     borderopacity="1.0"
     inkscape:pageopacity="0.0"
     inkscape:pageshadow="2"
     inkscape:zoom="0.98994949"
     inkscape:cx="179.75735"
     inkscape:cy="240.17121"
     inkscape:document-units="px"
     inkscape:current-layer="layer1"
     showgrid="false"
     fit-margin-top="0"
     fit-margin-left="0"
     fit-margin-right="0"
     fit-margin-bottom="0"
     inkscape:window-width="1920"
     inkscape:window-height="983"
     inkscape:window-x="0"
     inkscape:window-y="27"
     inkscape:window-maximized="1" />
  <metadata
     id="metadata7">
    <rdf:RDF>
      <cc:Work
         rdf:about="">
        <dc:format>image/svg+xml</dc:format>
        <dc:type
           rdf:resource="http://purl.org/dc/dcmitype/StillImage" />
        <dc:title />
      </cc:Work>
    </rdf:RDF>
  </metadata>
  <g
     inkscape:label="Layer 1"
     inkscape:groupmode="layer"
     id="layer1"
     transform="translate(-20.58345,-112.84375)">
    <g
       id="g4212">
      <path
         inkscape:connector-curvature="0"
         id="rect2985"
         d="m 335.95133,113.43427 c -5.40024,0 -9.86352,4.63792 -10.55031,10.65159 l -13.16678,0 0,-2.19447 -19.51385,0 0,2.19447 -10.49967,0 0,-2.19447 -19.51384,0 0,2.19447 -8.64281,0 0,-2.19447 -19.51385,0 0,2.19447 -4.82782,0 0,-2.19447 -21.48887,0 0,2.19447 -2.26198,0 0,3.27481 2.26198,0 0,2.17758 21.48887,0 0,-2.17758 4.82782,0 0,2.17758 19.51385,0 0,-2.17758 8.64281,0 0,2.17758 19.51384,0 0,-2.17758 10.49967,0 0,2.17758 19.51385,0 0,-2.17758 13.18366,0 c 0.69988,5.99923 5.14353,10.63471 10.53343,10.63471 5.39725,0 9.85895,-4.64205 10.5503,-10.65159 l 5.99258,0 0,2.19446 45.93181,0 0,-2.19446 10.33087,0 0,2.19446 41.71169,0 0,-2.19446 14.14585,0 0,1.95814 45.91494,0 0,-1.95814 10.33086,0 0,1.95814 41.71169,0 0,-1.95814 43.61919,0 0,-3.25793 -43.61919,0 0,-2.41391 -41.71169,0 0,2.41391 -10.33086,0 0,-2.41391 -45.91494,0 0,2.41391 -14.14585,0 0,-2.19447 -41.71169,0 0,2.19447 -10.33087,0 0,-2.19447 -45.93181,0 0,2.19447 -5.99258,0 c -0.69135,-6.00954 -5.15305,-10.65159 -10.5503,-10.65159 z"
         style="fill:#ffff00;fill-opacity:0.07762559;stroke:#f28136;stroke-width:1.15243256;stroke-miterlimit:4;stroke-opacity:0.95433792;stroke-dasharray:none" />
      <path
         inkscape:connector-curvature="0"
         id="rect2985-3"
         d="m 335.95132,136.58383 c -5.40024,0 -9.86351,4.63792 -10.55031,10.65159 l -13.16678,0 0,-2.19447 -19.51385,0 0,2.19447 -10.49967,0 0,-2.19447 -19.51384,0 0,2.19447 -8.64281,0 0,-2.19447 -19.51385,0 0,2.19447 -4.82782,0 0,-2.19447 -21.48886,0 0,2.19447 -2.26199,0 0,3.27481 2.26199,0 0,2.17758 21.48886,0 0,-2.17758 4.82782,0 0,2.17758 19.51385,0 0,-2.17758 8.64281,0 0,2.17758 19.51384,0 0,-2.17758 10.49967,0 0,2.17758 19.51385,0 0,-2.17758 13.18366,0 c 0.69988,5.99923 5.14353,10.63471 10.53343,10.63471 5.39726,0 9.85896,-4.64205 10.55031,-10.65159 l 5.99258,0 0,2.19446 45.93181,0 0,-2.19446 10.33087,0 0,2.19446 41.71169,0 0,-2.19446 14.14585,0 0,1.95814 45.91494,0 0,-1.95814 10.33086,0 0,1.95814 41.71169,0 0,-1.95814 43.61919,0 0,-3.25793 -43.61919,0 0,-2.41391 -41.71169,0 0,2.41391 -10.33086,0 0,-2.41391 -45.91494,0 0,2.41391 -14.14585,0 0,-2.19447 -41.71169,0 0,2.19447 -10.33087,0 0,-2.19447 -45.93181,0 0,2.19447 -5.99258,0 c -0.69135,-6.00954 -5.15305,-10.65159 -10.55031,-10.65159 z"
         style="fill:#ffff00;fill-opacity:0.07762559;stroke:#f28136;stroke-width:1.15243256;stroke-miterlimit:4;stroke-opacity:0.95433792;stroke-dasharray:none" />
      <path
         inkscape:connector-curvature="0"
         id="rect2985-22"
         d="m 335.95132,159.73325 c -5.40024,0 -9.86351,4.63792 -10.55031,10.65159 l -13.16678,0 0,-2.19447 -19.51385,0 0,2.19447 -10.49967,0 0,-2.19447 -19.51384,0 0,2.19447 -8.64281,0 0,-2.19447 -19.51385,0 0,2.19447 -4.82782,0 0,-2.19447 -21.48886,0 0,2.19447 -2.26199,0 0,3.27481 2.26199,0 0,2.17758 21.48886,0 0,-2.17758 4.82782,0 0,2.17758 19.51385,0 0,-2.17758 8.64281,0 0,2.17758 19.51384,0 0,-2.17758 10.49967,0 0,2.17758 19.51385,0 0,-2.17758 13.18366,0 c 0.69988,5.99923 5.14353,10.63471 10.53343,10.63471 5.39726,0 9.85896,-4.64205 10.55031,-10.65159 l 5.99258,0 0,2.19446 45.93181,0 0,-2.19446 10.33087,0 0,2.19446 41.71169,0 0,-2.19446 14.14585,0 0,1.95814 45.91494,0 0,-1.95814 10.33086,0 0,1.95814 41.71169,0 0,-1.95814 43.61919,0 0,-3.25793 -43.61919,0 0,-2.41391 -41.71169,0 0,2.41391 -10.33086,0 0,-2.41391 -45.91494,0 0,2.41391 -14.14585,0 0,-2.19447 -41.71169,0 0,2.19447 -10.33087,0 0,-2.19447 -45.93181,0 0,2.19447 -5.99258,0 c -0.69135,-6.00954 -5.15305,-10.65159 -10.55031,-10.65159 z"
         style="fill:#ffff00;fill-opacity:0.07762559;stroke:#f28136;stroke-width:1.15243256;stroke-miterlimit:4;stroke-opacity:0.95433792;stroke-dasharray:none" />
      <path
         inkscape:connector-curvature="0"
         id="rect2985-5"
         d="m 335.95132,182.88278 c -5.40024,0 -9.86351,4.63792 -10.55031,10.65159 l -13.16678,0 0,-2.19447 -19.51385,0 0,2.19447 -10.49967,0 0,-2.19447 -19.51384,0 0,2.19447 -8.64281,0 0,-2.19447 -19.51385,0 0,2.19447 -4.82782,0 0,-2.19447 -21.48886,0 0,2.19447 -2.26199,0 0,3.27481 2.26199,0 0,2.17758 21.48886,0 0,-2.17758 4.82782,0 0,2.17758 19.51385,0 0,-2.17758 8.64281,0 0,2.17758 19.51384,0 0,-2.17758 10.49967,0 0,2.17758 19.51385,0 0,-2.17758 13.18366,0 c 0.69988,5.99923 5.14353,10.63471 10.53343,10.63471 5.39726,0 9.85896,-4.64205 10.55031,-10.65159 l 5.99258,0 0,2.19446 45.93181,0 0,-2.19446 10.33087,0 0,2.19446 41.71169,0 0,-2.19446 14.14585,0 0,1.95814 45.91494,0 0,-1.95814 10.33086,0 0,1.95814 41.71169,0 0,-1.95814 43.61919,0 0,-3.25793 -43.61919,0 0,-2.41391 -41.71169,0 0,2.41391 -10.33086,0 0,-2.41391 -45.91494,0 0,2.41391 -14.14585,0 0,-2.19447 -41.71169,0 0,2.19447 -10.33087,0 0,-2.19447 -45.93181,0 0,2.19447 -5.99258,0 c -0.69135,-6.00954 -5.15305,-10.65159 -10.55031,-10.65159 z"
         style="fill:#ffff00;fill-opacity:0.07762559;stroke:#f28136;stroke-width:1.15243256;stroke-miterlimit:4;stroke-opacity:0.95433792;stroke-dasharray:none" />
      <path
         inkscape:connector-curvature="0"
         id="rect2985-26"
         d="m 335.95132,206.03232 c -5.40024,0 -9.86351,4.63792 -10.55031,10.65159 l -13.16678,0 0,-2.19447 -19.51385,0 0,2.19447 -10.49967,0 0,-2.19447 -19.51384,0 0,2.19447 -8.64281,0 0,-2.19447 -19.51385,0 0,2.19447 -4.82782,0 0,-2.19447 -21.48886,0 0,2.19447 -2.26199,0 0,3.27481 2.26199,0 0,2.17758 21.48886,0 0,-2.17758 4.82782,0 0,2.17758 19.51385,0 0,-2.17758 8.64281,0 0,2.17758 19.51384,0 0,-2.17758 10.49967,0 0,2.17758 19.51385,0 0,-2.17758 13.18366,0 c 0.69988,5.99923 5.14353,10.63471 10.53343,10.63471 5.39726,0 9.85896,-4.64205 10.55031,-10.65159 l 5.99258,0 0,2.19446 45.93181,0 0,-2.19446 10.33087,0 0,2.19446 41.71169,0 0,-2.19446 14.14585,0 0,1.95814 45.91494,0 0,-1.95814 10.33086,0 0,1.95814 41.71169,0 0,-1.95814 43.61919,0 0,-3.25793 -43.61919,0 0,-2.41391 -41.71169,0 0,2.41391 -10.33086,0 0,-2.41391 -45.91494,0 0,2.41391 -14.14585,0 0,-2.19447 -41.71169,0 0,2.19447 -10.33087,0 0,-2.19447 -45.93181,0 0,2.19447 -5.99258,0 c -0.69135,-6.00954 -5.15305,-10.65159 -10.55031,-10.65159 z"
         style="fill:#ffff00;fill-opacity:0.07762559;stroke:#f28136;stroke-width:1.15243256;stroke-miterlimit:4;stroke-opacity:0.95433792;stroke-dasharray:none" />
      <path
         inkscape:connector-curvature="0"
         id="rect2985-8"
         d="m 335.95132,229.18179 c -5.40024,0 -9.86351,4.63792 -10.55031,10.65159 l -13.16678,0 0,-2.19447 -19.51385,0 0,2.19447 -10.49967,0 0,-2.19447 -19.51384,0 0,2.19447 -8.64281,0 0,-2.19447 -19.51385,0 0,2.19447 -4.82782,0 0,-2.19447 -21.48886,0 0,2.19447 -2.26199,0 0,3.27481 2.26199,0 0,2.17758 21.48886,0 0,-2.17758 4.82782,0 0,2.17758 19.51385,0 0,-2.17758 8.64281,0 0,2.17758 19.51384,0 0,-2.17758 10.49967,0 0,2.17758 19.51385,0 0,-2.17758 13.18366,0 c 0.69988,5.99923 5.14353,10.63471 10.53343,10.63471 5.39726,0 9.85896,-4.64205 10.55031,-10.65159 l 5.99258,0 0,2.19446 45.93181,0 0,-2.19446 10.33087,0 0,2.19446 41.71169,0 0,-2.19446 14.14585,0 0,1.95814 45.91494,0 0,-1.95814 10.33086,0 0,1.95814 41.71169,0 0,-1.95814 43.61919,0 0,-3.25793 -43.61919,0 0,-2.41391 -41.71169,0 0,2.41391 -10.33086,0 0,-2.41391 -45.91494,0 0,2.41391 -14.14585,0 0,-2.19447 -41.71169,0 0,2.19447 -10.33087,0 0,-2.19447 -45.93181,0 0,2.19447 -5.99258,0 c -0.69135,-6.00954 -5.15305,-10.65159 -10.55031,-10.65159 z"
         style="fill:#ffff00;fill-opacity:0.07762559;stroke:#f28136;stroke-width:1.15243256;stroke-miterlimit:4;stroke-opacity:0.95433792;stroke-dasharray:none" />
      <path
         inkscape:connector-curvature="0"
         id="rect2985-13"
         d="m 335.95132,252.33126 c -5.40024,0 -9.86351,4.63792 -10.55031,10.65159 l -13.16678,0 0,-2.19447 -19.51385,0 0,2.19447 -10.49967,0 0,-2.19447 -19.51384,0 0,2.19447 -8.64281,0 0,-2.19447 -19.51385,0 0,2.19447 -4.82782,0 0,-2.19447 -21.48886,0 0,2.19447 -2.26199,0 0,3.27481 2.26199,0 0,2.17758 21.48886,0 0,-2.17758 4.82782,0 0,2.17758 19.51385,0 0,-2.17758 8.64281,0 0,2.17758 19.51384,0 0,-2.17758 10.49967,0 0,2.17758 19.51385,0 0,-2.17758 13.18366,0 c 0.69988,5.99923 5.14353,10.63471 10.53343,10.63471 5.39726,0 9.85896,-4.64205 10.55031,-10.65159 l 5.99258,0 0,2.19446 45.93181,0 0,-2.19446 10.33087,0 0,2.19446 41.71169,0 0,-2.19446 14.14585,0 0,1.95814 45.91494,0 0,-1.95814 10.33086,0 0,1.95814 41.71169,0 0,-1.95814 43.61919,0 0,-3.25793 -43.61919,0 0,-2.41391 -41.71169,0 0,2.41391 -10.33086,0 0,-2.41391 -45.91494,0 0,2.41391 -14.14585,0 0,-2.19447 -41.71169,0 0,2.19447 -10.33087,0 0,-2.19447 -45.93181,0 0,2.19447 -5.99258,0 c -0.69135,-6.00954 -5.15305,-10.65159 -10.55031,-10.65159 z"
         style="fill:#ffff00;fill-opacity:0.07762559;stroke:#f28136;stroke-width:1.15243256;stroke-miterlimit:4;stroke-opacity:0.95433792;stroke-dasharray:none" />
      <path
         inkscape:connector-curvature="0"
         id="rect2985-4"
         d="m 335.95132,275.4808 c -5.40024,0 -9.86351,4.63792 -10.55031,10.65159 l -13.16678,0 0,-2.19447 -19.51385,0 0,2.19447 -10.49967,0 0,-2.19447 -19.51384,0 0,2.19447 -8.64281,0 0,-2.19447 -19.51385,0 0,2.19447 -4.82782,0 0,-2.19447 -21.48886,0 0,2.19447 -2.26199,0 0,3.27481 2.26199,0 0,2.17758 21.48886,0 0,-2.17758 4.82782,0 0,2.17758 19.51385,0 0,-2.17758 8.64281,0 0,2.17758 19.51384,0 0,-2.17758 10.49967,0 0,2.17758 19.51385,0 0,-2.17758 13.18366,0 c 0.69988,5.99923 5.14353,10.63471 10.53343,10.63471 5.39726,0 9.85896,-4.64205 10.55031,-10.65159 l 5.99258,0 0,2.19446 45.93181,0 0,-2.19446 10.33087,0 0,2.19446 41.71169,0 0,-2.19446 14.14585,0 0,1.95814 45.91494,0 0,-1.95814 10.33086,0 0,1.95814 41.71169,0 0,-1.95814 43.61919,0 0,-3.25793 -43.61919,0 0,-2.41391 -41.71169,0 0,2.41391 -10.33086,0 0,-2.41391 -45.91494,0 0,2.41391 -14.14585,0 0,-2.19447 -41.71169,0 0,2.19447 -10.33087,0 0,-2.19447 -45.93181,0 0,2.19447 -5.99258,0 c -0.69135,-6.00954 -5.15305,-10.65159 -10.55031,-10.65159 z"
         style="fill:#ffff00;fill-opacity:0.07762559;stroke:#f28136;stroke-width:1.15243256;stroke-miterlimit:4;stroke-opacity:0.95433792;stroke-dasharray:none" />
      <path
         inkscape:connector-curvature="0"
         id="rect2985-23"
         d="m 335.95132,298.63033 c -5.40024,0 -9.86351,4.63792 -10.55031,10.65159 l -13.16678,0 0,-2.19447 -19.51385,0 0,2.19447 -10.49967,0 0,-2.19447 -19.51384,0 0,2.19447 -8.64281,0 0,-2.19447 -19.51385,0 0,2.19447 -4.82782,0 0,-2.19447 -21.48886,0 0,2.19447 -2.26199,0 0,3.27481 2.26199,0 0,2.17758 21.48886,0 0,-2.17758 4.82782,0 0,2.17758 19.51385,0 0,-2.17758 8.64281,0 0,2.17758 19.51384,0 0,-2.17758 10.49967,0 0,2.17758 19.51385,0 0,-2.17758 13.18366,0 c 0.69988,5.99923 5.14353,10.63471 10.53343,10.63471 5.39726,0 9.85896,-4.64205 10.55031,-10.65159 l 5.99258,0 0,2.19446 45.93181,0 0,-2.19446 10.33087,0 0,2.19446 41.71169,0 0,-2.19446 14.14585,0 0,1.95814 45.91494,0 0,-1.95814 10.33086,0 0,1.95814 41.71169,0 0,-1.95814 43.61919,0 0,-3.25793 -43.61919,0 0,-2.41391 -41.71169,0 0,2.41391 -10.33086,0 0,-2.41391 -45.91494,0 0,2.41391 -14.14585,0 0,-2.19447 -41.71169,0 0,2.19447 -10.33087,0 0,-2.19447 -45.93181,0 0,2.19447 -5.99258,0 c -0.69135,-6.00954 -5.15305,-10.65159 -10.55031,-10.65159 z"
         style="fill:#ffff00;fill-opacity:0.07762559;stroke:#f28136;stroke-width:1.15243256;stroke-miterlimit:4;stroke-opacity:0.95433792;stroke-dasharray:none" />
      <path
         inkscape:connector-curvature="0"
         id="rect2985-7"
         d="m 335.95132,321.77982 c -5.40024,0 -9.86351,4.63792 -10.55031,10.65159 l -13.16678,0 0,-2.19447 -19.51385,0 0,2.19447 -10.49967,0 0,-2.19447 -19.51384,0 0,2.19447 -8.64281,0 0,-2.19447 -19.51385,0 0,2.19447 -4.82782,0 0,-2.19447 -21.48886,0 0,2.19447 -2.26199,0 0,3.27481 2.26199,0 0,2.17758 21.48886,0 0,-2.17758 4.82782,0 0,2.17758 19.51385,0 0,-2.17758 8.64281,0 0,2.17758 19.51384,0 0,-2.17758 10.49967,0 0,2.17758 19.51385,0 0,-2.17758 13.18366,0 c 0.69988,5.99923 5.14353,10.63471 10.53343,10.63471 5.39726,0 9.85896,-4.64205 10.55031,-10.65159 l 5.99258,0 0,2.19446 45.93181,0 0,-2.19446 10.33087,0 0,2.19446 41.71169,0 0,-2.19446 14.14585,0 0,1.95814 45.91494,0 0,-1.95814 10.33086,0 0,1.95814 41.71169,0 0,-1.95814 43.61919,0 0,-3.25793 -43.61919,0 0,-2.41391 -41.71169,0 0,2.41391 -10.33086,0 0,-2.41391 -45.91494,0 0,2.41391 -14.14585,0 0,-2.19447 -41.71169,0 0,2.19447 -10.33087,0 0,-2.19447 -45.93181,0 0,2.19447 -5.99258,0 c -0.69135,-6.00954 -5.15305,-10.65159 -10.55031,-10.65159 z"
         style="fill:#ffff00;fill-opacity:0.07762559;stroke:#f28136;stroke-width:1.15243256;stroke-miterlimit:4;stroke-opacity:0.95433792;stroke-dasharray:none" />
      <path
         inkscape:connector-curvature="0"
         id="rect2985-27"
         d="m 335.95133,344.9293 c -5.40024,0 -9.86352,4.63792 -10.55031,10.65159 l -13.16678,0 0,-2.19447 -19.51386,0 0,2.19447 -10.49967,0 0,-2.19447 -19.51384,0 0,2.19447 -8.64281,0 0,-2.19447 -19.51385,0 0,2.19447 -4.82782,0 0,-2.19447 -21.48887,0 0,2.19447 -2.26198,0 0,3.27481 2.26198,0 0,2.17758 21.48887,0 0,-2.17758 4.82782,0 0,2.17758 19.51385,0 0,-2.17758 8.64281,0 0,2.17758 19.51384,0 0,-2.17758 10.49967,0 0,2.17758 19.51386,0 0,-2.17758 13.18366,0 c 0.69988,5.99923 5.14353,10.63471 10.53343,10.63471 5.39725,0 9.85895,-4.64205 10.5503,-10.65159 l 5.99258,0 0,2.19446 45.93181,0 0,-2.19446 10.33087,0 0,2.19446 41.71169,0 0,-2.19446 14.14585,0 0,1.95814 45.91494,0 0,-1.95814 10.33086,0 0,1.95814 41.71169,0 0,-1.95814 43.61919,0 0,-3.25793 -43.61919,0 0,-2.41391 -41.71169,0 0,2.41391 -10.33086,0 0,-2.41391 -45.91494,0 0,2.41391 -14.14585,0 0,-2.19447 -41.71169,0 0,2.19447 -10.33087,0 0,-2.19447 -45.93181,0 0,2.19447 -5.99258,0 c -0.69135,-6.00954 -5.15305,-10.65159 -10.5503,-10.65159 z"
         style="fill:#ffff00;fill-opacity:0.07762559;stroke:#f28136;stroke-width:1.15243256;stroke-miterlimit:4;stroke-opacity:0.95433792;stroke-dasharray:none" />
      <path
         inkscape:connector-curvature="0"
         id="rect2985-3-4"
         d="m 335.95132,368.0788 c -5.40024,0 -9.86351,4.63792 -10.55031,10.65159 l -13.16678,0 0,-2.19447 -19.51386,0 0,2.19447 -10.49967,0 0,-2.19447 -19.51384,0 0,2.19447 -8.64281,0 0,-2.19447 -19.51385,0 0,2.19447 -4.82782,0 0,-2.19447 -21.48886,0 0,2.19447 -2.26199,0 0,3.27481 2.26199,0 0,2.17758 21.48886,0 0,-2.17758 4.82782,0 0,2.17758 19.51385,0 0,-2.17758 8.64281,0 0,2.17758 19.51384,0 0,-2.17758 10.49967,0 0,2.17758 19.51386,0 0,-2.17758 13.18366,0 c 0.69988,5.99923 5.14353,10.63471 10.53343,10.63471 5.39726,0 9.85896,-4.64205 10.55031,-10.65159 l 5.99258,0 0,2.19446 45.93181,0 0,-2.19446 10.33087,0 0,2.19446 41.71169,0 0,-2.19446 14.14585,0 0,1.95814 45.91494,0 0,-1.95814 10.33086,0 0,1.95814 41.71169,0 0,-1.95814 43.61919,0 0,-3.25793 -43.61919,0 0,-2.41391 -41.71169,0 0,2.41391 -10.33086,0 0,-2.41391 -45.91494,0 0,2.41391 -14.14585,0 0,-2.19447 -41.71169,0 0,2.19447 -10.33087,0 0,-2.19447 -45.93181,0 0,2.19447 -5.99258,0 c -0.69135,-6.00954 -5.15305,-10.65159 -10.55031,-10.65159 z"
         style="fill:#ffff00;fill-opacity:0.07762559;stroke:#f28136;stroke-width:1.15243256;stroke-miterlimit:4;stroke-opacity:0.95433792;stroke-dasharray:none" />
      <path
         inkscape:connector-curvature="0"
         id="rect2985-22-4"
         d="m 335.95132,391.22828 c -5.40024,0 -9.86351,4.63792 -10.55031,10.65159 l -13.16678,0 0,-2.19447 -19.51386,0 0,2.19447 -10.49967,0 0,-2.19447 -19.51384,0 0,2.19447 -8.64281,0 0,-2.19447 -19.51385,0 0,2.19447 -4.82782,0 0,-2.19447 -21.48886,0 0,2.19447 -2.26199,0 0,3.27481 2.26199,0 0,2.17758 21.48886,0 0,-2.17758 4.82782,0 0,2.17758 19.51385,0 0,-2.17758 8.64281,0 0,2.17758 19.51384,0 0,-2.17758 10.49967,0 0,2.17758 19.51386,0 0,-2.17758 13.18366,0 c 0.69988,5.99923 5.14353,10.63471 10.53343,10.63471 5.39726,0 9.85896,-4.64205 10.55031,-10.65159 l 5.99258,0 0,2.19446 45.93181,0 0,-2.19446 10.33087,0 0,2.19446 41.71169,0 0,-2.19446 14.14585,0 0,1.95814 45.91494,0 0,-1.95814 10.33086,0 0,1.95814 41.71169,0 0,-1.95814 43.61919,0 0,-3.25793 -43.61919,0 0,-2.41391 -41.71169,0 0,2.41391 -10.33086,0 0,-2.41391 -45.91494,0 0,2.41391 -14.14585,0 0,-2.19447 -41.71169,0 0,2.19447 -10.33087,0 0,-2.19447 -45.93181,0 0,2.19447 -5.99258,0 c -0.69135,-6.00954 -5.15305,-10.65159 -10.55031,-10.65159 z"
         style="fill:#ffff00;fill-opacity:0.07762559;stroke:#f28136;stroke-width:1.15243256;stroke-miterlimit:4;stroke-opacity:0.95433792;stroke-dasharray:none" />
      <path
         inkscape:connector-curvature="0"
         id="rect2985-5-1"
         d="m 335.95132,414.37775 c -5.40024,0 -9.86351,4.63792 -10.55031,10.65159 l -13.16678,0 0,-2.19447 -19.51386,0 0,2.19447 -10.49967,0 0,-2.19447 -19.51384,0 0,2.19447 -8.64281,0 0,-2.19447 -19.51385,0 0,2.19447 -4.82782,0 0,-2.19447 -21.48886,0 0,2.19447 -2.26199,0 0,3.27481 2.26199,0 0,2.17758 21.48886,0 0,-2.17758 4.82782,0 0,2.17758 19.51385,0 0,-2.17758 8.64281,0 0,2.17758 19.51384,0 0,-2.17758 10.49967,0 0,2.17758 19.51386,0 0,-2.17758 13.18366,0 c 0.69988,5.99923 5.14353,10.63471 10.53343,10.63471 5.39726,0 9.85896,-4.64205 10.55031,-10.65159 l 5.99258,0 0,2.19446 45.93181,0 0,-2.19446 10.33087,0 0,2.19446 41.71169,0 0,-2.19446 14.14585,0 0,1.95814 45.91494,0 0,-1.95814 10.33086,0 0,1.95814 41.71169,0 0,-1.95814 43.61919,0 0,-3.25793 -43.61919,0 0,-2.41391 -41.71169,0 0,2.41391 -10.33086,0 0,-2.41391 -45.91494,0 0,2.41391 -14.14585,0 0,-2.19447 -41.71169,0 0,2.19447 -10.33087,0 0,-2.19447 -45.93181,0 0,2.19447 -5.99258,0 c -0.69135,-6.00954 -5.15305,-10.65159 -10.55031,-10.65159 z"
         style="fill:#ffff00;fill-opacity:0.07762559;stroke:#f28136;stroke-width:1.15243256;stroke-miterlimit:4;stroke-opacity:0.95433792;stroke-dasharray:none" />
      <path
         inkscape:connector-curvature="0"
         id="rect2985-26-0"
         d="m 335.95132,437.52729 c -5.40024,0 -9.86351,4.63792 -10.55031,10.65159 l -13.16678,0 0,-2.19447 -19.51386,0 0,2.19447 -10.49967,0 0,-2.19447 -19.51384,0 0,2.19447 -8.64281,0 0,-2.19447 -19.51385,0 0,2.19447 -4.82782,0 0,-2.19447 -21.48886,0 0,2.19447 -2.26199,0 0,3.27481 2.26199,0 0,2.17758 21.48886,0 0,-2.17758 4.82782,0 0,2.17758 19.51385,0 0,-2.17758 8.64281,0 0,2.17758 19.51384,0 0,-2.17758 10.49967,0 0,2.17758 19.51386,0 0,-2.17758 13.18366,0 c 0.69988,5.99923 5.14353,10.63471 10.53343,10.63471 5.39726,0 9.85896,-4.64205 10.55031,-10.65159 l 5.99258,0 0,2.19446 45.93181,0 0,-2.19446 10.33087,0 0,2.19446 41.71169,0 0,-2.19446 14.14585,0 0,1.95814 45.91494,0 0,-1.95814 10.33086,0 0,1.95814 41.71169,0 0,-1.95814 43.61919,0 0,-3.25793 -43.61919,0 0,-2.41391 -41.71169,0 0,2.41391 -10.33086,0 0,-2.41391 -45.91494,0 0,2.41391 -14.14585,0 0,-2.19447 -41.71169,0 0,2.19447 -10.33087,0 0,-2.19447 -45.93181,0 0,2.19447 -5.99258,0 c -0.69135,-6.00954 -5.15305,-10.65159 -10.55031,-10.65159 z"
         style="fill:#ffff00;fill-opacity:0.07762559;stroke:#f28136;stroke-width:1.15243256;stroke-miterlimit:4;stroke-opacity:0.95433792;stroke-dasharray:none" />
      <path
         inkscape:connector-curvature="0"
         id="rect2985-8-5"
         d="m 335.95132,460.67683 c -5.40024,0 -9.86351,4.63792 -10.55031,10.65159 l -13.16678,0 0,-2.19447 -19.51386,0 0,2.19447 -10.49967,0 0,-2.19447 -19.51384,0 0,2.19447 -8.64281,0 0,-2.19447 -19.51385,0 0,2.19447 -4.82782,0 0,-2.19447 -21.48886,0 0,2.19447 -2.26199,0 0,3.27481 2.26199,0 0,2.17758 21.48886,0 0,-2.17758 4.82782,0 0,2.17758 19.51385,0 0,-2.17758 8.64281,0 0,2.17758 19.51384,0 0,-2.17758 10.49967,0 0,2.17758 19.51386,0 0,-2.17758 13.18366,0 c 0.69988,5.99923 5.14353,10.63471 10.53343,10.63471 5.39726,0 9.85896,-4.64205 10.55031,-10.65159 l 5.99258,0 0,2.19446 45.93181,0 0,-2.19446 10.33087,0 0,2.19446 41.71169,0 0,-2.19446 14.14585,0 0,1.95814 45.91494,0 0,-1.95814 10.33086,0 0,1.95814 41.71169,0 0,-1.95814 43.61919,0 0,-3.25793 -43.61919,0 0,-2.41391 -41.71169,0 0,2.41391 -10.33086,0 0,-2.41391 -45.91494,0 0,2.41391 -14.14585,0 0,-2.19447 -41.71169,0 0,2.19447 -10.33087,0 0,-2.19447 -45.93181,0 0,2.19447 -5.99258,0 c -0.69135,-6.00954 -5.15305,-10.65159 -10.55031,-10.65159 z"
         style="fill:#ffff00;fill-opacity:0.07762559;stroke:#f28136;stroke-width:1.15243256;stroke-miterlimit:4;stroke-opacity:0.95433792;stroke-dasharray:none" />
      <path
         inkscape:connector-curvature="0"
         id="rect2985-13-1"
         d="m 335.95132,483.8263 c -5.40024,0 -9.86351,4.63792 -10.55031,10.65159 l -13.16678,0 0,-2.19447 -19.51386,0 0,2.19447 -10.49967,0 0,-2.19447 -19.51384,0 0,2.19447 -8.64281,0 0,-2.19447 -19.51385,0 0,2.19447 -4.82782,0 0,-2.19447 -21.48886,0 0,2.19447 -2.26199,0 0,3.27481 2.26199,0 0,2.17758 21.48886,0 0,-2.17758 4.82782,0 0,2.17758 19.51385,0 0,-2.17758 8.64281,0 0,2.17758 19.51384,0 0,-2.17758 10.49967,0 0,2.17758 19.51386,0 0,-2.17758 13.18366,0 c 0.69988,5.99923 5.14353,10.63471 10.53343,10.63471 5.39726,0 9.85896,-4.64205 10.55031,-10.65159 l 5.99258,0 0,2.19446 45.93181,0 0,-2.19446 10.33087,0 0,2.19446 41.71169,0 0,-2.19446 14.14585,0 0,1.95814 45.91494,0 0,-1.95814 10.33086,0 0,1.95814 41.71169,0 0,-1.95814 43.61919,0 0,-3.25793 -43.61919,0 0,-2.41391 -41.71169,0 0,2.41391 -10.33086,0 0,-2.41391 -45.91494,0 0,2.41391 -14.14585,0 0,-2.19447 -41.71169,0 0,2.19447 -10.33087,0 0,-2.19447 -45.93181,0 0,2.19447 -5.99258,0 c -0.69135,-6.00954 -5.15305,-10.65159 -10.55031,-10.65159 z"
         style="fill:#ffff00;fill-opacity:0.07762559;stroke:#f28136;stroke-width:1.15243256;stroke-miterlimit:4;stroke-opacity:0.95433792;stroke-dasharray:none" />
      <path
         inkscape:connector-curvature="0"
         id="rect2985-4-9"
         d="m 335.95132,506.97577 c -5.40024,0 -9.86351,4.63792 -10.55031,10.65159 l -13.16678,0 0,-2.19447 -19.51386,0 0,2.19447 -10.49967,0 0,-2.19447 -19.51384,0 0,2.19447 -8.64281,0 0,-2.19447 -19.51385,0 0,2.19447 -4.82782,0 0,-2.19447 -21.48886,0 0,2.19447 -2.26199,0 0,3.27481 2.26199,0 0,2.17758 21.48886,0 0,-2.17758 4.82782,0 0,2.17758 19.51385,0 0,-2.17758 8.64281,0 0,2.17758 19.51384,0 0,-2.17758 10.49967,0 0,2.17758 19.51386,0 0,-2.17758 13.18366,0 c 0.69988,5.99923 5.14353,10.63471 10.53343,10.63471 5.39726,0 9.85896,-4.64205 10.55031,-10.65159 l 5.99258,0 0,2.19446 45.93181,0 0,-2.19446 10.33087,0 0,2.19446 41.71169,0 0,-2.19446 14.14585,0 0,1.95814 45.91494,0 0,-1.95814 10.33086,0 0,1.95814 41.71169,0 0,-1.95814 43.61919,0 0,-3.25793 -43.61919,0 0,-2.41391 -41.71169,0 0,2.41391 -10.33086,0 0,-2.41391 -45.91494,0 0,2.41391 -14.14585,0 0,-2.19447 -41.71169,0 0,2.19447 -10.33087,0 0,-2.19447 -45.93181,0 0,2.19447 -5.99258,0 c -0.69135,-6.00954 -5.15305,-10.65159 -10.55031,-10.65159 z"
         style="fill:#ffff00;fill-opacity:0.07762559;stroke:#f28136;stroke-width:1.15243256;stroke-miterlimit:4;stroke-opacity:0.95433792;stroke-dasharray:none" />
      <path
         inkscape:connector-curvature="0"
         id="rect2985-23-8"
         d="m 335.95132,530.12533 c -5.40024,0 -9.86351,4.63792 -10.55031,10.65159 l -13.16678,0 0,-2.19447 -19.51386,0 0,2.19447 -10.49967,0 0,-2.19447 -19.51384,0 0,2.19447 -8.64281,0 0,-2.19447 -19.51385,0 0,2.19447 -4.82782,0 0,-2.19447 -21.48886,0 0,2.19447 -2.26199,0 0,3.27481 2.26199,0 0,2.17758 21.48886,0 0,-2.17758 4.82782,0 0,2.17758 19.51385,0 0,-2.17758 8.64281,0 0,2.17758 19.51384,0 0,-2.17758 10.49967,0 0,2.17758 19.51386,0 0,-2.17758 13.18366,0 c 0.69988,5.99923 5.14353,10.63471 10.53343,10.63471 5.39726,0 9.85896,-4.64205 10.55031,-10.65159 l 5.99258,0 0,2.19446 45.93181,0 0,-2.19446 10.33087,0 0,2.19446 41.71169,0 0,-2.19446 14.14585,0 0,1.95814 45.91494,0 0,-1.95814 10.33086,0 0,1.95814 41.71169,0 0,-1.95814 43.61919,0 0,-3.25793 -43.61919,0 0,-2.41391 -41.71169,0 0,2.41391 -10.33086,0 0,-2.41391 -45.91494,0 0,2.41391 -14.14585,0 0,-2.19447 -41.71169,0 0,2.19447 -10.33087,0 0,-2.19447 -45.93181,0 0,2.19447 -5.99258,0 c -0.69135,-6.00954 -5.15305,-10.65159 -10.55031,-10.65159 z"
         style="fill:#ffff00;fill-opacity:0.07762559;stroke:#f28136;stroke-width:1.15243256;stroke-miterlimit:4;stroke-opacity:0.95433792;stroke-dasharray:none" />
      <path
         inkscape:connector-curvature="0"
         id="rect2985-7-6"
         d="m 335.95132,553.27479 c -5.40024,0 -9.86351,4.63792 -10.55031,10.65159 l -13.16678,0 0,-2.19447 -19.51386,0 0,2.19447 -10.49967,0 0,-2.19447 -19.51384,0 0,2.19447 -8.64281,0 0,-2.19447 -19.51385,0 0,2.19447 -4.82782,0 0,-2.19447 -21.48886,0 0,2.19447 -2.26199,0 0,3.27481 2.26199,0 0,2.17758 21.48886,0 0,-2.17758 4.82782,0 0,2.17758 19.51385,0 0,-2.17758 8.64281,0 0,2.17758 19.51384,0 0,-2.17758 10.49967,0 0,2.17758 19.51386,0 0,-2.17758 13.18366,0 c 0.69988,5.99923 5.14353,10.63471 10.53343,10.63471 5.39726,0 9.85896,-4.64205 10.55031,-10.65159 l 5.99258,0 0,2.19446 45.93181,0 0,-2.19446 10.33087,0 0,2.19446 41.71169,0 0,-2.19446 14.14585,0 0,1.95814 45.91494,0 0,-1.95814 10.33086,0 0,1.95814 41.71169,0 0,-1.95814 43.61919,0 0,-3.25793 -43.61919,0 0,-2.41391 -41.71169,0 0,2.41391 -10.33086,0 0,-2.41391 -45.91494,0 0,2.41391 -14.14585,0 0,-2.19447 -41.71169,0 0,2.19447 -10.33087,0 0,-2.19447 -45.93181,0 0,2.19447 -5.99258,0 c -0.69135,-6.00954 -5.15305,-10.65159 -10.55031,-10.65159 z"
         style="fill:#ffff00;fill-opacity:0.07762559;stroke:#f28136;stroke-width:1.15243256;stroke-miterlimit:4;stroke-opacity:0.95433792;stroke-dasharray:none" />
      <path
         inkscape:connector-curvature="0"
         id="rect2985-4-9-6"
         d="m 335.95132,576.42431 c -5.40024,0 -9.86351,4.63792 -10.55031,10.65159 l -13.16678,0 0,-2.19447 -19.51386,0 0,2.19447 -10.49967,0 0,-2.19447 -19.51384,0 0,2.19447 -8.64281,0 0,-2.19447 -19.51385,0 0,2.19447 -4.82782,0 0,-2.19447 -21.48886,0 0,2.19447 -2.26199,0 0,3.27481 2.26199,0 0,2.17758 21.48886,0 0,-2.17758 4.82782,0 0,2.17758 19.51385,0 0,-2.17758 8.64281,0 0,2.17758 19.51384,0 0,-2.17758 10.49967,0 0,2.17758 19.51386,0 0,-2.17758 13.18366,0 c 0.69988,5.99923 5.14353,10.63471 10.53343,10.63471 5.39726,0 9.85896,-4.64205 10.55031,-10.65159 l 5.99258,0 0,2.19446 45.93181,0 0,-2.19446 10.33087,0 0,2.19446 41.71169,0 0,-2.19446 14.14585,0 0,1.95814 45.91494,0 0,-1.95814 10.33086,0 0,1.95814 41.71169,0 0,-1.95814 43.61919,0 0,-3.25793 -43.61919,0 0,-2.41391 -41.71169,0 0,2.41391 -10.33086,0 0,-2.41391 -45.91494,0 0,2.41391 -14.14585,0 0,-2.19447 -41.71169,0 0,2.19447 -10.33087,0 0,-2.19447 -45.93181,0 0,2.19447 -5.99258,0 c -0.69135,-6.00954 -5.15305,-10.65159 -10.55031,-10.65159 z"
         style="fill:#ffff00;fill-opacity:0.07762559;stroke:#f28136;stroke-width:1.15243256;stroke-miterlimit:4;stroke-opacity:0.95433792;stroke-dasharray:none" />
      <path
         inkscape:connector-curvature="0"
         id="rect2985-23-8-5"
         d="m 335.95132,599.57381 c -5.40024,0 -9.86351,4.63792 -10.55031,10.65159 l -13.16678,0 0,-2.19447 -19.51386,0 0,2.19447 -10.49967,0 0,-2.19447 -19.51384,0 0,2.19447 -8.64281,0 0,-2.19447 -19.51385,0 0,2.19447 -4.82782,0 0,-2.19447 -21.48886,0 0,2.19447 -2.26199,0 0,3.27481 2.26199,0 0,2.17758 21.48886,0 0,-2.17758 4.82782,0 0,2.17758 19.51385,0 0,-2.17758 8.64281,0 0,2.17758 19.51384,0 0,-2.17758 10.49967,0 0,2.17758 19.51386,0 0,-2.17758 13.18366,0 c 0.69988,5.99923 5.14353,10.63471 10.53343,10.63471 5.39726,0 9.85896,-4.64205 10.55031,-10.65159 l 5.99258,0 0,2.19446 45.93181,0 0,-2.19446 10.33087,0 0,2.19446 41.71169,0 0,-2.19446 14.14585,0 0,1.95814 45.91494,0 0,-1.95814 10.33086,0 0,1.95814 41.71169,0 0,-1.95814 43.61919,0 0,-3.25793 -43.61919,0 0,-2.41391 -41.71169,0 0,2.41391 -10.33086,0 0,-2.41391 -45.91494,0 0,2.41391 -14.14585,0 0,-2.19447 -41.71169,0 0,2.19447 -10.33087,0 0,-2.19447 -45.93181,0 0,2.19447 -5.99258,0 c -0.69135,-6.00954 -5.15305,-10.65159 -10.55031,-10.65159 z"
         style="fill:#ffff00;fill-opacity:0.07762559;stroke:#f28136;stroke-width:1.15243256;stroke-miterlimit:4;stroke-opacity:0.95433792;stroke-dasharray:none" />
      <path
         inkscape:connector-curvature="0"
         id="rect2985-7-6-9"
         d="m 335.95132,622.72333 c -5.40024,0 -9.86351,4.63792 -10.55031,10.65159 l -13.16678,0 0,-2.19447 -19.51386,0 0,2.19447 -10.49967,0 0,-2.19447 -19.51384,0 0,2.19447 -8.64281,0 0,-2.19447 -19.51385,0 0,2.19447 -4.82782,0 0,-2.19447 -21.48886,0 0,2.19447 -2.26199,0 0,3.27481 2.26199,0 0,2.17758 21.48886,0 0,-2.17758 4.82782,0 0,2.17758 19.51385,0 0,-2.17758 8.64281,0 0,2.17758 19.51384,0 0,-2.17758 10.49967,0 0,2.17758 19.51386,0 0,-2.17758 13.18366,0 c 0.69988,5.99923 5.14353,10.63471 10.53343,10.63471 5.39726,0 9.85896,-4.64205 10.55031,-10.65159 l 5.99258,0 0,2.19446 45.93181,0 0,-2.19446 10.33087,0 0,2.19446 41.71169,0 0,-2.19446 14.14585,0 0,1.95814 45.91494,0 0,-1.95814 10.33086,0 0,1.95814 41.71169,0 0,-1.95814 43.61919,0 0,-3.25793 -43.61919,0 0,-2.41391 -41.71169,0 0,2.41391 -10.33086,0 0,-2.41391 -45.91494,0 0,2.41391 -14.14585,0 0,-2.19447 -41.71169,0 0,2.19447 -10.33087,0 0,-2.19447 -45.93181,0 0,2.19447 -5.99258,0 c -0.69135,-6.00954 -5.15305,-10.65159 -10.55031,-10.65159 z"
         style="fill:#ffff00;fill-opacity:0.07762559;stroke:#f28136;stroke-width:1.15243256;stroke-miterlimit:4;stroke-opacity:0.95433792;stroke-dasharray:none" />
    </g>
    <path
       style="fill:url(#linearGradient5666);fill-opacity:1;fill-rule:evenodd;stroke:none;stroke-width:0.83150232px;stroke-linecap:butt;stroke-linejoin:miter;stroke-opacity:1"
       d="M 75.706584,363.79876 C 203.11344,321.78461 190.66114,291.57 248.13843,255.45561 V 484.58008 C 201.78929,443.44741 202.54136,398.62297 75.706584,363.79876 Z"
       id="path3388"
       inkscape:connector-curvature="0"
       sodipodi:nodetypes="cccc" />
    <circle
       style="fill:#ff0000;fill-opacity:1;stroke:none"
       id="path5693-6"
       cx="233.29773"
       cy="288.73215"
       r="4.2857141" />
    <circle
       style="fill:#0000f4;fill-opacity:1;stroke:none"
       id="path5693-7"
       cx="245.29773"
       cy="310.73215"
       r="4.2857141" />
    <circle
       style="fill:#ff0000;fill-opacity:1;stroke:none"
       id="path5693-9"
       cx="263.29773"
       cy="356.73215"
       r="4.2857141" />
    <circle
       style="fill:#ff0000;fill-opacity:1;stroke:none"
       id="path5693-2"
       cx="235.29773"
       cy="378.73215"
       r="4.2857141" />
    <circle
       style="fill:#ff0000;fill-opacity:1;stroke:none"
       id="path5693-70"
       cx="237.29773"
       cy="402.73215"
       r="4.2857141" />
    <circle
       style="fill:#ff0000;fill-opacity:1;stroke:none"
       id="path5693-93"
       cx="233.29773"
       cy="426.73215"
       r="4.2857141" />
    <circle
       style="fill:#ff0000;fill-opacity:1;stroke:none"
       id="path5693-60"
       cx="233.29773"
       cy="450.73215"
       r="4.2857141" />
    <circle
       style="fill:#ff0000;fill-opacity:1;stroke:none"
       id="path5693-79"
       cx="256.86917"
       cy="335.01785"
       r="4.2857141" />
    <g
       id="g4743"
       transform="translate(0,-9.1360849)">
      <g
         transform="matrix(0.40030817,0,0,0.82383586,261.06087,77.595883)"
         id="g948">
        <path
           style="fill:none;fill-rule:evenodd;stroke:#000000;stroke-width:1px;stroke-linecap:butt;stroke-linejoin:miter;stroke-opacity:1"
           d="M -527.98797,660.73214 -506.5594,95.017861 h 25.71428 l 28.57143,567.142849 z"
           id="path856"
           inkscape:connector-curvature="0" />
        <path
           style="fill:none;fill-rule:evenodd;stroke:#000000;stroke-width:0.98172349px;stroke-linecap:butt;stroke-linejoin:miter;stroke-opacity:1"
           d="m -509.00626,168.0692 31.51503,-0.26786 0.70671,10.2473 -32.63402,0.37246 z"
           id="path858"
           inkscape:connector-curvature="0"
           sodipodi:nodetypes="ccccc" />
        <path
           style="fill:none;fill-rule:evenodd;stroke:#000000;stroke-width:1.05441701px;stroke-linecap:butt;stroke-linejoin:miter;stroke-opacity:1"
           d="m -511.34122,221.92557 36.82309,-1e-5 0.57037,10.38123 -37.64585,0.0153 z"
           id="path858-3"
           inkscape:connector-curvature="0"
           sodipodi:nodetypes="ccccc" />
        <path
           style="fill:none;fill-rule:evenodd;stroke:#000000;stroke-width:0.925165px;stroke-linecap:butt;stroke-linejoin:miter;stroke-opacity:1"
           d="m -507.77451,120.07807 27.98838,0.003 0.40459,10.40986 -28.75911,-0.061 z"
           id="path858-7"
           inkscape:connector-curvature="0"
           sodipodi:nodetypes="ccccc" />
        <path
           style="fill:none;fill-rule:evenodd;stroke:#000000;stroke-width:1.12612581px;stroke-linecap:butt;stroke-linejoin:miter;stroke-opacity:1"
           d="m -513.39031,283.31487 42.00193,-10e-6 0.65059,10.38123 -42.94041,0.0153 z"
           id="path858-3-5"
           inkscape:connector-curvature="0"
           sodipodi:nodetypes="ccccc" />
        <path
           style="fill:none;fill-rule:evenodd;stroke:#000000;stroke-width:1.20720911px;stroke-linecap:butt;stroke-linejoin:miter;stroke-opacity:1"
           d="m -516.24906,352.25778 48.26813,-1e-5 0.74765,10.38123 -49.34662,0.0153 z"
           id="path858-3-5-3"
           inkscape:connector-curvature="0"
           sodipodi:nodetypes="ccccc" />
        <path
           style="fill:none;fill-rule:evenodd;stroke:#000000;stroke-width:1.2869581px;stroke-linecap:butt;stroke-linejoin:miter;stroke-opacity:1"
           d="m -519.17305,430.62307 55.21316,-0.0446 0.49255,10.42588 -56.0817,0.0153 z"
           id="path858-3-5-3-5"
           inkscape:connector-curvature="0"
           sodipodi:nodetypes="ccccc" />
        <path
           style="fill:none;fill-rule:evenodd;stroke:#000000;stroke-width:1.35245681px;stroke-linecap:butt;stroke-linejoin:miter;stroke-opacity:1"
           d="m -521.74577,499.77111 60.97623,-0.0446 0.54395,10.42588 -61.93542,0.0153 z"
           id="path858-3-5-3-5-3"
           inkscape:connector-curvature="0"
           sodipodi:nodetypes="ccccc" />
      </g>
    </g>
    <path
       style="fill:url(#linearGradient4617);fill-opacity:1;fill-rule:evenodd;stroke:none;stroke-width:0.83150232px;stroke-linecap:butt;stroke-linejoin:miter;stroke-opacity:1"
       d="M 79.706584,254.69137 C 207.11345,212.67722 194.66115,182.46261 252.13844,146.34822 V 375.47269 C 205.7893,334.34002 206.54137,289.51558 79.706584,254.69137 Z"
       id="path3388-5"
       inkscape:connector-curvature="0"
       sodipodi:nodetypes="cccc" />
    <circle
       style="fill:#0c00ff;fill-opacity:1;stroke:none"
       id="path5693-9-3"
       cx="268.22311"
       cy="169.89017"
       r="4.2857141" />
    <circle
       style="fill:#0c00ff;fill-opacity:1;stroke:none"
       id="path5693-2-5"
       cx="240.22311"
       cy="191.89014"
       r="4.2857141" />
    <circle
       style="fill:#0c00ff;fill-opacity:1;stroke:none"
       id="path5693-70-6"
       cx="242.22311"
       cy="215.89014"
       r="4.2857141" />
    <circle
       style="fill:#0c00ff;fill-opacity:1;stroke:none"
       id="path5693-93-2"
       cx="238.22311"
       cy="239.89014"
       r="4.2857141" />
    <circle
       style="fill:#0c00ff;fill-opacity:1;stroke:none"
       id="path5693-60-9"
       cx="238.22311"
       cy="263.89014"
       r="4.2857141" />
    <path
       style="fill:url(#linearGradient4717);fill-opacity:1;fill-rule:evenodd;stroke:none;stroke-width:0.83150232px;stroke-linecap:butt;stroke-linejoin:miter;stroke-opacity:1"
       d="M 79.646746,484.97564 C 207.05361,442.96149 194.60131,412.74688 252.0786,376.63249 V 605.75696 C 205.72946,564.62429 206.48153,519.79985 79.646746,484.97564 Z"
       id="path3388-9"
       inkscape:connector-curvature="0"
       sodipodi:nodetypes="cccc" />
    <circle
       style="fill:#00ff03;fill-opacity:1;stroke:none"
       id="path5693-9-3-0"
       cx="249.73579"
       cy="473.59583"
       r="4.2857141" />
    <circle
       style="fill:#00ff03;fill-opacity:1;stroke:none"
       id="path5693-2-5-2"
       cx="221.73579"
       cy="495.59576"
       r="4.2857141" />
    <circle
       style="fill:#00ff03;fill-opacity:1;stroke:none"
       id="path5693-70-6-3"
       cx="223.73579"
       cy="519.59576"
       r="4.2857141" />
    <circle
       style="fill:#00ff03;fill-opacity:1;stroke:none"
       id="path5693-93-2-7"
       cx="219.73579"
       cy="543.59576"
       r="4.2857141" />
    <circle
       style="fill:#00ff03;fill-opacity:1;stroke:none"
       id="path5693-60-9-5"
       cx="219.73579"
       cy="567.59576"
       r="4.2857141" />
  </g>
</svg>
