<?xml version="1.0" encoding="UTF-8" standalone="no"?>
<!-- Created with Inkscape (http://www.inkscape.org/) -->

<svg
   xmlns:dc="http://purl.org/dc/elements/1.1/"
   xmlns:cc="http://creativecommons.org/ns#"
   xmlns:rdf="http://www.w3.org/1999/02/22-rdf-syntax-ns#"
   xmlns:svg="http://www.w3.org/2000/svg"
   xmlns="http://www.w3.org/2000/svg"
   xmlns:sodipodi="http://sodipodi.sourceforge.net/DTD/sodipodi-0.dtd"
   xmlns:inkscape="http://www.inkscape.org/namespaces/inkscape"
   width="684.75623"
   height="535.00262"
   id="svg2"
   version="1.1"
   inkscape:version="0.92.4 (unknown)"
   sodipodi:docname="AN-partial-severe-degenerated_non_stimulation.svg"
   inkscape:export-filename="/home/jundurraga/pCloudDrive/Documents/Presentations/CIAP_2019/jaime/my_figures/AN-partial-severe-degenerated_david.png"
   inkscape:export-xdpi="600"
   inkscape:export-ydpi="600">
  <defs
     id="defs4" />
  <sodipodi:namedview
     id="base"
     pagecolor="#ffffff"
     bordercolor="#666666"
     borderopacity="1.0"
     inkscape:pageopacity="0.0"
     inkscape:pageshadow="2"
     inkscape:zoom="0.98994949"
     inkscape:cx="233.08738"
     inkscape:cy="230.53404"
     inkscape:document-units="px"
     inkscape:current-layer="layer1"
     showgrid="false"
     fit-margin-top="0"
     fit-margin-left="0"
     fit-margin-right="0"
     fit-margin-bottom="0"
     inkscape:window-width="1920"
     inkscape:window-height="983"
     inkscape:window-x="0"
     inkscape:window-y="27"
     inkscape:window-maximized="1" />
  <metadata
     id="metadata7">
    <rdf:RDF>
      <cc:Work
         rdf:about="">
        <dc:format>image/svg+xml</dc:format>
        <dc:type
           rdf:resource="http://purl.org/dc/dcmitype/StillImage" />
        <dc:title></dc:title>
      </cc:Work>
    </rdf:RDF>
  </metadata>
  <g
     inkscape:label="Layer 1"
     inkscape:groupmode="layer"
     id="layer1"
     transform="translate(77.792267,-112.85805)">
    <path
       style="fill:#ffff00;fill-opacity:0.07762559;stroke:#f28136;stroke-width:1.15243256;stroke-miterlimit:4;stroke-dasharray:none;stroke-opacity:0.95433792"
       d="m 336.14799,113.43427 c -5.40024,0 -9.86352,4.63792 -10.55031,10.65159 H 312.4309 v -2.19447 h -19.51385 v 2.19447 h -10.49967 v -2.19447 h -19.51384 v 2.19447 h -8.64281 v -2.19447 h -19.51385 v 2.19447 h -4.82782 v -2.19447 h -21.48887 v 2.19447 h -2.26198 v 3.27481 h 2.26198 v 2.17758 h 21.48887 v -2.17758 h 4.82782 v 2.17758 h 19.51385 v -2.17758 h 8.64281 v 2.17758 h 19.51384 v -2.17758 h 10.49967 v 2.17758 h 19.51385 v -2.17758 h 13.18366 c 0.69988,5.99923 5.14353,10.63471 10.53343,10.63471 5.39725,0 9.85895,-4.64205 10.5503,-10.65159 h 5.99258 v 2.19446 h 45.93181 v -2.19446 h 10.33087 v 2.19446 h 41.71169 v -2.19446 h 14.14585 v 1.95814 h 45.91494 v -1.95814 h 10.33086 v 1.95814 h 41.71169 v -1.95814 h 43.61919 v -3.25793 h -43.61919 v -2.41391 h -41.71169 v 2.41391 h -10.33086 v -2.41391 h -45.91494 v 2.41391 h -14.14585 v -2.19447 h -41.71169 v 2.19447 h -10.33087 v -2.19447 h -45.93181 v 2.19447 h -5.99258 c -0.69135,-6.00954 -5.15305,-10.65159 -10.5503,-10.65159 z"
       id="rect2985"
       inkscape:connector-curvature="0" />
    <path
       style="fill:#ffff00;fill-opacity:0.07762559;stroke:#f28136;stroke-width:1.15243256;stroke-miterlimit:4;stroke-dasharray:none;stroke-opacity:0.95433792"
       d="m 336.14798,136.5838 c -5.40024,0 -9.86351,4.63792 -10.55031,10.65159 h -13.16678 v -2.19447 h -19.51385 v 2.19447 h -10.49967 v -2.19447 h -19.51384 v 2.19447 h -8.64281 v -2.19447 h -19.51385 v 2.19447 h -4.82782 v -2.19447 h -21.48886 v 2.19447 h -2.26199 v 3.27481 h 2.26199 v 2.17758 h 21.48886 v -2.17758 h 4.82782 v 2.17758 h 19.51385 v -2.17758 h 8.64281 v 2.17758 h 19.51384 v -2.17758 h 10.49967 v 2.17758 h 19.51385 v -2.17758 h 13.18366 c 0.69988,5.99923 5.14353,10.63471 10.53343,10.63471 5.39726,0 9.85896,-4.64205 10.55031,-10.65159 h 5.99258 v 2.19446 h 45.93181 v -2.19446 h 10.33087 v 2.19446 h 41.71169 v -2.19446 h 14.14585 v 1.95814 h 45.91494 v -1.95814 h 10.33086 v 1.95814 h 41.71169 v -1.95814 h 43.61919 v -3.25793 h -43.61919 v -2.41391 h -41.71169 v 2.41391 h -10.33086 v -2.41391 h -45.91494 v 2.41391 h -14.14585 v -2.19447 h -41.71169 v 2.19447 h -10.33087 v -2.19447 h -45.93181 v 2.19447 h -5.99258 c -0.69135,-6.00954 -5.15305,-10.65159 -10.55031,-10.65159 z"
       id="rect2985-3"
       inkscape:connector-curvature="0" />
    <path
       style="fill:#ffff00;fill-opacity:0.07762559;stroke:#f28136;stroke-width:1.15243256;stroke-miterlimit:4;stroke-dasharray:none;stroke-opacity:0.95433792"
       d="m 336.14798,159.73328 c -5.40024,0 -9.86351,4.63792 -10.55031,10.65159 h -13.16678 v -2.19447 h -19.51385 v 2.19447 h -10.49967 v -2.19447 h -19.51384 v 2.19447 h -8.64281 v -2.19447 h -19.51385 v 2.19447 h -4.82782 v -2.19447 h -21.48886 v 2.19447 h -2.26199 v 3.27481 h 2.26199 v 2.17758 h 21.48886 v -2.17758 h 4.82782 v 2.17758 h 19.51385 v -2.17758 h 8.64281 v 2.17758 h 19.51384 v -2.17758 h 10.49967 v 2.17758 h 19.51385 v -2.17758 h 13.18366 c 0.69988,5.99923 5.14353,10.63471 10.53343,10.63471 5.39726,0 9.85896,-4.64205 10.55031,-10.65159 h 5.99258 v 2.19446 h 45.93181 v -2.19446 h 10.33087 v 2.19446 h 41.71169 v -2.19446 h 14.14585 v 1.95814 h 45.91494 v -1.95814 h 10.33086 v 1.95814 h 41.71169 v -1.95814 h 43.61919 v -3.25793 h -43.61919 v -2.41391 h -41.71169 v 2.41391 h -10.33086 v -2.41391 h -45.91494 v 2.41391 h -14.14585 v -2.19447 h -41.71169 v 2.19447 h -10.33087 v -2.19447 h -45.93181 v 2.19447 h -5.99258 c -0.69135,-6.00954 -5.15305,-10.65159 -10.55031,-10.65159 z"
       id="rect2985-22"
       inkscape:connector-curvature="0" />
    <path
       style="fill:#ffff00;fill-opacity:0.07762559;stroke:#f28136;stroke-width:1.15243256;stroke-miterlimit:4;stroke-dasharray:none;stroke-opacity:0.95433792"
       d="m 336.14798,229.18179 c -5.40024,0 -9.86351,4.63792 -10.55031,10.65159 h -13.16678 v -2.19447 h -19.51385 v 2.19447 h -10.49967 v -2.19447 h -19.51384 v 2.19447 h -8.64281 v -2.19447 h -19.51385 v 2.19447 h -4.82782 v -2.19447 h -21.48886 v 2.19447 h -2.26199 v 3.27481 h 2.26199 v 2.17758 h 21.48886 v -2.17758 h 4.82782 v 2.17758 h 19.51385 v -2.17758 h 8.64281 v 2.17758 h 19.51384 v -2.17758 h 10.49967 v 2.17758 h 19.51385 v -2.17758 h 13.18366 c 0.69988,5.99923 5.14353,10.63471 10.53343,10.63471 5.39726,0 9.85896,-4.64205 10.55031,-10.65159 h 5.99258 v 2.19446 h 45.93181 v -2.19446 h 10.33087 v 2.19446 h 41.71169 v -2.19446 h 14.14585 v 1.95814 h 45.91494 v -1.95814 h 10.33086 v 1.95814 h 41.71169 v -1.95814 h 43.61919 v -3.25793 h -43.61919 v -2.41391 h -41.71169 v 2.41391 h -10.33086 v -2.41391 h -45.91494 v 2.41391 h -14.14585 v -2.19447 h -41.71169 v 2.19447 h -10.33087 v -2.19447 h -45.93181 v 2.19447 h -5.99258 c -0.69135,-6.00954 -5.15305,-10.65159 -10.55031,-10.65159 z"
       id="rect2985-8"
       inkscape:connector-curvature="0" />
    <path
       style="fill:#ffff00;fill-opacity:0.07762559;stroke:#f28136;stroke-width:1.15243256;stroke-miterlimit:4;stroke-dasharray:none;stroke-opacity:0.95433792"
       d="m 336.14798,252.33129 c -5.40024,0 -9.86351,4.63792 -10.55031,10.65159 h -13.16678 v -2.19447 h -19.51385 v 2.19447 h -10.49967 v -2.19447 h -19.51384 v 2.19447 h -8.64281 v -2.19447 h -19.51385 v 2.19447 h -4.82782 v -2.19447 h -21.48886 v 2.19447 h -2.26199 v 3.27481 h 2.26199 v 2.17758 h 21.48886 v -2.17758 h 4.82782 v 2.17758 h 19.51385 v -2.17758 h 8.64281 v 2.17758 h 19.51384 v -2.17758 h 10.49967 v 2.17758 h 19.51385 v -2.17758 h 13.18366 c 0.69988,5.99923 5.14353,10.63471 10.53343,10.63471 5.39726,0 9.85896,-4.64205 10.55031,-10.65159 h 5.99258 v 2.19446 h 45.93181 v -2.19446 h 10.33087 v 2.19446 h 41.71169 v -2.19446 h 14.14585 v 1.95814 h 45.91494 v -1.95814 h 10.33086 v 1.95814 h 41.71169 v -1.95814 h 43.61919 v -3.25793 h -43.61919 v -2.41391 h -41.71169 v 2.41391 h -10.33086 v -2.41391 h -45.91494 v 2.41391 h -14.14585 v -2.19447 h -41.71169 v 2.19447 h -10.33087 v -2.19447 h -45.93181 v 2.19447 h -5.99258 c -0.69135,-6.00954 -5.15305,-10.65159 -10.55031,-10.65159 z"
       id="rect2985-13"
       inkscape:connector-curvature="0" />
    <path
       style="fill:#ffff00;fill-opacity:0.07762559;stroke:#f28136;stroke-width:1.15243256;stroke-miterlimit:4;stroke-dasharray:none;stroke-opacity:0.95433792"
       d="m 336.14798,275.4808 c -5.40024,0 -9.86351,4.63792 -10.55031,10.65159 h -13.16678 v -2.19447 h -19.51385 v 2.19447 h -10.49967 v -2.19447 h -19.51384 v 2.19447 h -8.64281 v -2.19447 h -19.51385 v 2.19447 h -4.82782 v -2.19447 h -21.48886 v 2.19447 h -2.26199 v 3.27481 h 2.26199 v 2.17758 h 21.48886 v -2.17758 h 4.82782 v 2.17758 h 19.51385 v -2.17758 h 8.64281 v 2.17758 h 19.51384 v -2.17758 h 10.49967 v 2.17758 h 19.51385 v -2.17758 h 13.18366 c 0.69988,5.99923 5.14353,10.63471 10.53343,10.63471 5.39726,0 9.85896,-4.64205 10.55031,-10.65159 h 5.99258 v 2.19446 h 45.93181 v -2.19446 h 10.33087 v 2.19446 h 41.71169 v -2.19446 h 14.14585 v 1.95814 h 45.91494 v -1.95814 h 10.33086 v 1.95814 h 41.71169 v -1.95814 h 43.61919 v -3.25793 h -43.61919 v -2.41391 h -41.71169 v 2.41391 h -10.33086 v -2.41391 h -45.91494 v 2.41391 h -14.14585 v -2.19447 h -41.71169 v 2.19447 h -10.33087 v -2.19447 h -45.93181 v 2.19447 h -5.99258 c -0.69135,-6.00954 -5.15305,-10.65159 -10.55031,-10.65159 z"
       id="rect2985-4"
       inkscape:connector-curvature="0" />
    <path
       style="fill:#ffff00;fill-opacity:0.07762559;stroke:#f28136;stroke-width:1.15243256;stroke-miterlimit:4;stroke-dasharray:none;stroke-opacity:0.95433792"
       d="m 336.14798,298.6303 c -5.40024,0 -9.86351,4.63792 -10.55031,10.65159 h -13.16678 v -2.19447 h -19.51385 v 2.19447 h -10.49967 v -2.19447 h -19.51384 v 2.19447 h -8.64281 v -2.19447 h -19.51385 v 2.19447 h -4.82782 v -2.19447 h -21.48886 v 2.19447 h -2.26199 v 3.27481 h 2.26199 v 2.17758 h 21.48886 v -2.17758 h 4.82782 v 2.17758 h 19.51385 v -2.17758 h 8.64281 v 2.17758 h 19.51384 v -2.17758 h 10.49967 v 2.17758 h 19.51385 v -2.17758 h 13.18366 c 0.69988,5.99923 5.14353,10.63471 10.53343,10.63471 5.39726,0 9.85896,-4.64205 10.55031,-10.65159 h 5.99258 v 2.19446 h 45.93181 v -2.19446 h 10.33087 v 2.19446 h 41.71169 v -2.19446 h 14.14585 v 1.95814 h 45.91494 v -1.95814 h 10.33086 v 1.95814 h 41.71169 v -1.95814 h 43.61919 v -3.25793 h -43.61919 v -2.41391 h -41.71169 v 2.41391 h -10.33086 v -2.41391 h -45.91494 v 2.41391 h -14.14585 v -2.19447 h -41.71169 v 2.19447 h -10.33087 v -2.19447 h -45.93181 v 2.19447 h -5.99258 c -0.69135,-6.00954 -5.15305,-10.65159 -10.55031,-10.65159 z"
       id="rect2985-23"
       inkscape:connector-curvature="0" />
    <path
       style="fill:#ffff00;fill-opacity:0.07762559;stroke:#f28136;stroke-width:1.15243256;stroke-miterlimit:4;stroke-dasharray:none;stroke-opacity:0.95433792"
       d="m 336.14798,414.37782 c -5.40024,0 -9.86351,4.63792 -10.55031,10.65159 h -13.16678 v -2.19447 h -19.51386 v 2.19447 h -10.49967 v -2.19447 h -19.51384 v 2.19447 h -8.64281 v -2.19447 h -19.51385 v 2.19447 h -4.82782 v -2.19447 h -21.48886 v 2.19447 h -2.26199 v 3.27481 h 2.26199 v 2.17758 h 21.48886 v -2.17758 h 4.82782 v 2.17758 h 19.51385 v -2.17758 h 8.64281 v 2.17758 h 19.51384 v -2.17758 h 10.49967 v 2.17758 h 19.51386 v -2.17758 h 13.18366 c 0.69988,5.99923 5.14353,10.63471 10.53343,10.63471 5.39726,0 9.85896,-4.64205 10.55031,-10.65159 h 5.99258 v 2.19446 h 45.93181 v -2.19446 h 10.33087 v 2.19446 h 41.71169 v -2.19446 h 14.14585 v 1.95814 h 45.91494 v -1.95814 h 10.33086 v 1.95814 h 41.71169 v -1.95814 h 43.61919 v -3.25793 h -43.61919 v -2.41391 h -41.71169 v 2.41391 h -10.33086 v -2.41391 h -45.91494 v 2.41391 h -14.14585 v -2.19447 h -41.71169 v 2.19447 h -10.33087 v -2.19447 h -45.93181 v 2.19447 h -5.99258 c -0.69135,-6.00954 -5.15305,-10.65159 -10.55031,-10.65159 z"
       id="rect2985-26-0"
       inkscape:connector-curvature="0" />
    <path
       style="fill:#ffff00;fill-opacity:0.07762559;stroke:#f28136;stroke-width:1.15243256;stroke-miterlimit:4;stroke-dasharray:none;stroke-opacity:0.95433792"
       d="m 336.14798,437.52733 c -5.40024,0 -9.86351,4.63792 -10.55031,10.65159 h -13.16678 v -2.19447 h -19.51386 v 2.19447 h -10.49967 v -2.19447 h -19.51384 v 2.19447 h -8.64281 v -2.19447 h -19.51385 v 2.19447 h -4.82782 v -2.19447 h -21.48886 v 2.19447 h -2.26199 v 3.27481 h 2.26199 v 2.17758 h 21.48886 v -2.17758 h 4.82782 v 2.17758 h 19.51385 v -2.17758 h 8.64281 v 2.17758 h 19.51384 v -2.17758 h 10.49967 v 2.17758 h 19.51386 v -2.17758 h 13.18366 c 0.69988,5.99923 5.14353,10.63471 10.53343,10.63471 5.39726,0 9.85896,-4.64205 10.55031,-10.65159 h 5.99258 v 2.19446 h 45.93181 v -2.19446 h 10.33087 v 2.19446 h 41.71169 v -2.19446 h 14.14585 v 1.95814 h 45.91494 v -1.95814 h 10.33086 v 1.95814 h 41.71169 v -1.95814 h 43.61919 v -3.25793 h -43.61919 v -2.41391 h -41.71169 v 2.41391 h -10.33086 v -2.41391 h -45.91494 v 2.41391 h -14.14585 v -2.19447 h -41.71169 v 2.19447 h -10.33087 v -2.19447 h -45.93181 v 2.19447 h -5.99258 c -0.69135,-6.00954 -5.15305,-10.65159 -10.55031,-10.65159 z"
       id="rect2985-8-5"
       inkscape:connector-curvature="0" />
    <path
       style="fill:#ffff00;fill-opacity:0.07762559;stroke:#f28136;stroke-width:1.15243256;stroke-miterlimit:4;stroke-dasharray:none;stroke-opacity:0.95433792"
       d="m 336.14798,506.97583 c -5.40024,0 -9.86351,4.63792 -10.55031,10.65159 h -13.16678 v -2.19447 h -19.51386 v 2.19447 h -10.49967 v -2.19447 h -19.51384 v 2.19447 h -8.64281 v -2.19447 h -19.51385 v 2.19447 h -4.82782 v -2.19447 h -21.48886 v 2.19447 h -2.26199 v 3.27481 h 2.26199 v 2.17758 h 21.48886 v -2.17758 h 4.82782 v 2.17758 h 19.51385 v -2.17758 h 8.64281 v 2.17758 h 19.51384 v -2.17758 h 10.49967 v 2.17758 h 19.51386 v -2.17758 h 13.18366 c 0.69988,5.99923 5.14353,10.63471 10.53343,10.63471 5.39726,0 9.85896,-4.64205 10.55031,-10.65159 h 5.99258 v 2.19446 h 45.93181 v -2.19446 h 10.33087 v 2.19446 h 41.71169 v -2.19446 h 14.14585 v 1.95814 h 45.91494 v -1.95814 h 10.33086 v 1.95814 h 41.71169 v -1.95814 h 43.61919 v -3.25793 h -43.61919 v -2.41391 h -41.71169 v 2.41391 h -10.33086 v -2.41391 h -45.91494 v 2.41391 h -14.14585 v -2.19447 h -41.71169 v 2.19447 h -10.33087 v -2.19447 h -45.93181 v 2.19447 h -5.99258 c -0.69135,-6.00954 -5.15305,-10.65159 -10.55031,-10.65159 z"
       id="rect2985-4-9"
       inkscape:connector-curvature="0" />
    <path
       style="fill:#ffff00;fill-opacity:0.07762559;stroke:#f28136;stroke-width:1.15243256;stroke-miterlimit:4;stroke-dasharray:none;stroke-opacity:0.95433792"
       d="m 336.14798,530.12532 c -5.40024,0 -9.86351,4.63792 -10.55031,10.65159 h -13.16678 v -2.19447 h -19.51386 v 2.19447 h -10.49967 v -2.19447 h -19.51384 v 2.19447 h -8.64281 v -2.19447 h -19.51385 v 2.19447 h -4.82782 v -2.19447 h -21.48886 v 2.19447 h -2.26199 v 3.27481 h 2.26199 v 2.17758 h 21.48886 v -2.17758 h 4.82782 v 2.17758 h 19.51385 v -2.17758 h 8.64281 v 2.17758 h 19.51384 v -2.17758 h 10.49967 v 2.17758 h 19.51386 v -2.17758 h 13.18366 c 0.69988,5.99923 5.14353,10.63471 10.53343,10.63471 5.39726,0 9.85896,-4.64205 10.55031,-10.65159 h 5.99258 v 2.19446 h 45.93181 v -2.19446 h 10.33087 v 2.19446 h 41.71169 v -2.19446 h 14.14585 v 1.95814 h 45.91494 v -1.95814 h 10.33086 v 1.95814 h 41.71169 v -1.95814 h 43.61919 v -3.25793 H 562.76858 V 538.363 h -41.71169 v 2.41391 H 510.72603 V 538.363 h -45.91494 v 2.41391 h -14.14585 v -2.19447 h -41.71169 v 2.19447 h -10.33087 v -2.19447 h -45.93181 v 2.19447 h -5.99258 c -0.69135,-6.00954 -5.15305,-10.65159 -10.55031,-10.65159 z"
       id="rect2985-23-8"
       inkscape:connector-curvature="0" />
    <path
       style="fill:#ffff00;fill-opacity:0.07762559;stroke:#f28136;stroke-width:1.15243256;stroke-miterlimit:4;stroke-dasharray:none;stroke-opacity:0.95433792"
       d="m 336.14798,553.27483 c -5.40024,0 -9.86351,4.63792 -10.55031,10.65159 h -13.16678 v -2.19447 h -19.51386 v 2.19447 h -10.49967 v -2.19447 h -19.51384 v 2.19447 h -8.64281 v -2.19447 h -19.51385 v 2.19447 h -4.82782 v -2.19447 h -21.48886 v 2.19447 h -2.26199 v 3.27481 h 2.26199 v 2.17758 h 21.48886 v -2.17758 h 4.82782 v 2.17758 h 19.51385 v -2.17758 h 8.64281 v 2.17758 h 19.51384 v -2.17758 h 10.49967 v 2.17758 h 19.51386 v -2.17758 h 13.18366 c 0.69988,5.99923 5.14353,10.63471 10.53343,10.63471 5.39726,0 9.85896,-4.64205 10.55031,-10.65159 h 5.99258 v 2.19446 h 45.93181 v -2.19446 h 10.33087 v 2.19446 h 41.71169 v -2.19446 h 14.14585 v 1.95814 h 45.91494 v -1.95814 h 10.33086 v 1.95814 h 41.71169 v -1.95814 h 43.61919 v -3.25793 h -43.61919 v -2.41391 h -41.71169 v 2.41391 h -10.33086 v -2.41391 h -45.91494 v 2.41391 h -14.14585 v -2.19447 h -41.71169 v 2.19447 h -10.33087 v -2.19447 h -45.93181 v 2.19447 h -5.99258 c -0.69135,-6.00954 -5.15305,-10.65159 -10.55031,-10.65159 z"
       id="rect2985-7-6"
       inkscape:connector-curvature="0" />
    <path
       style="fill:#ffff00;fill-opacity:0.07762559;stroke:#f28136;stroke-width:1.15243256;stroke-miterlimit:4;stroke-dasharray:none;stroke-opacity:0.95433792"
       d="m 336.14798,576.42433 c -5.40024,0 -9.86351,4.63792 -10.55031,10.65159 h -13.16678 v -2.19447 h -19.51386 v 2.19447 h -10.49967 v -2.19447 h -19.51384 v 2.19447 h -8.64281 v -2.19447 h -19.51385 v 2.19447 h -4.82782 v -2.19447 h -21.48886 v 2.19447 h -2.26199 v 3.27481 h 2.26199 v 2.17758 h 21.48886 v -2.17758 h 4.82782 v 2.17758 h 19.51385 v -2.17758 h 8.64281 v 2.17758 h 19.51384 v -2.17758 h 10.49967 v 2.17758 h 19.51386 v -2.17758 h 13.18366 c 0.69988,5.99923 5.14353,10.63471 10.53343,10.63471 5.39726,0 9.85896,-4.64205 10.55031,-10.65159 h 5.99258 v 2.19446 h 45.93181 v -2.19446 h 10.33087 v 2.19446 h 41.71169 v -2.19446 h 14.14585 v 1.95814 h 45.91494 v -1.95814 h 10.33086 v 1.95814 h 41.71169 v -1.95814 h 43.61919 v -3.25793 h -43.61919 v -2.41391 h -41.71169 v 2.41391 h -10.33086 v -2.41391 h -45.91494 v 2.41391 h -14.14585 v -2.19447 h -41.71169 v 2.19447 h -10.33087 v -2.19447 h -45.93181 v 2.19447 h -5.99258 c -0.69135,-6.00954 -5.15305,-10.65159 -10.55031,-10.65159 z"
       id="rect2985-4-9-6"
       inkscape:connector-curvature="0" />
    <path
       style="fill:#ffff00;fill-opacity:0.07762559;stroke:#f28136;stroke-width:1.15243256;stroke-miterlimit:4;stroke-dasharray:none;stroke-opacity:0.95433792"
       d="m 336.14798,599.57383 c -5.40024,0 -9.86351,4.63792 -10.55031,10.65159 h -13.16678 v -2.19447 h -19.51386 v 2.19447 h -10.49967 v -2.19447 h -19.51384 v 2.19447 h -8.64281 v -2.19447 h -19.51385 v 2.19447 h -4.82782 v -2.19447 h -21.48886 v 2.19447 h -2.26199 v 3.27481 h 2.26199 v 2.17758 h 21.48886 v -2.17758 h 4.82782 v 2.17758 h 19.51385 v -2.17758 h 8.64281 v 2.17758 h 19.51384 v -2.17758 h 10.49967 v 2.17758 h 19.51386 v -2.17758 h 13.18366 c 0.69988,5.99923 5.14353,10.63471 10.53343,10.63471 5.39726,0 9.85896,-4.64205 10.55031,-10.65159 h 5.99258 v 2.19446 h 45.93181 v -2.19446 h 10.33087 v 2.19446 h 41.71169 v -2.19446 h 14.14585 v 1.95814 h 45.91494 v -1.95814 h 10.33086 v 1.95814 h 41.71169 v -1.95814 h 43.61919 v -3.25793 h -43.61919 v -2.41391 h -41.71169 v 2.41391 h -10.33086 v -2.41391 h -45.91494 v 2.41391 h -14.14585 v -2.19447 h -41.71169 v 2.19447 h -10.33087 v -2.19447 h -45.93181 v 2.19447 h -5.99258 c -0.69135,-6.00954 -5.15305,-10.65159 -10.55031,-10.65159 z"
       id="rect2985-23-8-5"
       inkscape:connector-curvature="0" />
    <path
       style="fill:#ffff00;fill-opacity:0.07762559;stroke:#f28136;stroke-width:1.15243256;stroke-miterlimit:4;stroke-dasharray:none;stroke-opacity:0.95433792"
       d="m 336.14798,622.72333 c -5.40024,0 -9.86351,4.63792 -10.55031,10.65159 h -13.16678 v -2.19447 h -19.51386 v 2.19447 h -10.49967 v -2.19447 h -19.51384 v 2.19447 h -8.64281 v -2.19447 h -19.51385 v 2.19447 h -4.82782 v -2.19447 h -21.48886 v 2.19447 h -2.26199 v 3.27481 h 2.26199 v 2.17758 h 21.48886 v -2.17758 h 4.82782 v 2.17758 h 19.51385 v -2.17758 h 8.64281 v 2.17758 h 19.51384 v -2.17758 h 10.49967 v 2.17758 h 19.51386 v -2.17758 h 13.18366 c 0.69988,5.99923 5.14353,10.63471 10.53343,10.63471 5.39726,0 9.85896,-4.64205 10.55031,-10.65159 h 5.99258 v 2.19446 h 45.93181 v -2.19446 h 10.33087 v 2.19446 h 41.71169 v -2.19446 h 14.14585 v 1.95814 h 45.91494 v -1.95814 h 10.33086 v 1.95814 h 41.71169 v -1.95814 h 43.61919 v -3.25793 h -43.61919 v -2.41391 h -41.71169 v 2.41391 h -10.33086 v -2.41391 h -45.91494 v 2.41391 h -14.14585 v -2.19447 h -41.71169 v 2.19447 h -10.33087 v -2.19447 h -45.93181 v 2.19447 h -5.99258 c -0.69135,-6.00954 -5.15305,-10.65159 -10.55031,-10.65159 z"
       id="rect2985-7-6-9"
       inkscape:connector-curvature="0" />
    <path
       style="fill:#ffff00;fill-opacity:0.07762559;stroke:#f28136;stroke-width:1.15243256;stroke-miterlimit:4;stroke-dasharray:none;stroke-opacity:0.95433792"
       d="m 336.14798,460.67683 c -5.40024,0 -9.86351,4.63793 -10.55031,10.65159 h -13.18366 v -2.17758 h -19.49698 v 2.17758 h -17.06617 v -2.17758 h -19.49697 v 2.17758 H 238.7813 v 3.27482 h 17.57259 v 2.17758 h 19.49697 v -2.17758 h 17.06617 v 2.17758 h 19.49698 v -2.17758 h 13.20054 c 0.69766,6.00207 5.14177,10.63471 10.53343,10.63471 5.39725,0 9.85896,-4.64206 10.55032,-10.65159 h 5.99257 v 2.19446 h 45.93182 v -2.19446 h 10.33086 v 2.19446 h 41.71169 v -2.19446 h 14.14585 v 1.95813 h 45.91494 v -1.95813 h 10.33086 v 1.95813 h 41.71169 v -1.95813 h 43.61919 v -3.25794 h -43.61919 v -2.41391 h -41.71169 v 2.41391 h -10.33086 v -2.41391 h -45.91494 v 2.41391 h -14.14585 v -2.19446 h -41.71169 v 2.19446 h -10.33086 v -2.19446 h -45.93182 v 2.19446 h -5.99257 c -0.69136,-6.00954 -5.15307,-10.65159 -10.55032,-10.65159 z"
       id="rect2985-1-5"
       inkscape:connector-curvature="0" />
    <path
       style="fill:#ffff00;fill-opacity:0.07762559;stroke:#f28136;stroke-width:1.15243256;stroke-miterlimit:4;stroke-dasharray:none;stroke-opacity:0.95433792"
       d="m 336.14798,483.82633 c -5.40024,0 -9.86351,4.63793 -10.55031,10.65159 h -13.18366 v -2.17758 h -19.49699 v 2.17758 h -17.06617 v -2.17758 h -19.49697 v 2.17758 h -17.57259 v 3.27482 h 17.57259 v 2.17758 h 19.49697 v -2.17758 h 17.06617 v 2.17758 h 19.49699 v -2.17758 h 13.20054 c 0.69766,6.00207 5.14177,10.63471 10.53343,10.63471 5.39726,0 9.85896,-4.64206 10.55032,-10.65159 h 5.99257 v 2.19446 h 45.93182 v -2.19446 h 10.33086 v 2.19446 h 41.71169 v -2.19446 h 14.14585 v 1.95813 h 45.91494 v -1.95813 h 10.33086 v 1.95813 h 41.71169 v -1.95813 h 43.61919 v -3.25794 h -43.61919 v -2.41391 h -41.71169 v 2.41391 h -10.33086 v -2.41391 h -45.91494 v 2.41391 h -14.14585 v -2.19446 h -41.71169 v 2.19446 h -10.33086 v -2.19446 h -45.93182 v 2.19446 h -5.99257 c -0.69136,-6.00954 -5.15306,-10.65159 -10.55032,-10.65159 z"
       id="rect2985-1-6-3"
       inkscape:connector-curvature="0" />
    <path
       style="fill:#ffff00;fill-opacity:0.07762559;stroke:#f28136;stroke-width:1.15243256;stroke-miterlimit:4;stroke-dasharray:none;stroke-opacity:0.95433792"
       d="m 336.14799,182.88278 c -5.40024,0 -9.86351,4.63793 -10.55031,10.65159 h -13.18367 v -2.17758 h -19.49698 v 2.17758 h -17.06617 v -2.17758 h -19.49697 v 2.17758 H 238.7813 v 3.27482 h 17.57259 v 2.17758 h 19.49697 v -2.17758 h 17.06617 v 2.17758 h 19.49698 v -2.17758 h 13.20055 c 0.69766,6.00207 5.14177,10.63471 10.53343,10.63471 5.39725,0 9.85895,-4.64206 10.55031,-10.65159 h 5.99257 v 2.19446 h 45.93182 v -2.19446 h 10.33086 v 2.19446 h 41.71169 v -2.19446 h 14.14585 v 1.95813 h 45.91494 v -1.95813 h 10.33086 v 1.95813 h 41.71169 v -1.95813 h 43.61919 v -3.25794 h -43.61919 v -2.41391 h -41.71169 v 2.41391 h -10.33086 v -2.41391 h -45.91494 v 2.41391 h -14.14585 v -2.19446 h -41.71169 v 2.19446 h -10.33086 v -2.19446 h -45.93182 v 2.19446 h -5.99257 c -0.69136,-6.00954 -5.15306,-10.65159 -10.55031,-10.65159 z"
       id="rect2985-1-3"
       inkscape:connector-curvature="0" />
    <path
       style="fill:#ffff00;fill-opacity:0.07762559;stroke:#f28136;stroke-width:1.15243256;stroke-miterlimit:4;stroke-dasharray:none;stroke-opacity:0.95433792"
       d="m 336.14799,206.03226 c -5.40024,0 -9.86351,4.63793 -10.55031,10.65159 h -13.18367 v -2.17758 h -19.49699 v 2.17758 h -17.06617 v -2.17758 h -19.49697 v 2.17758 h -17.57259 v 3.27482 h 17.57259 v 2.17758 h 19.49697 v -2.17758 h 17.06617 v 2.17758 h 19.49699 v -2.17758 h 13.20055 c 0.69766,6.00207 5.14177,10.63471 10.53343,10.63471 5.39725,0 9.85895,-4.64206 10.55031,-10.65159 h 5.99257 v 2.19446 h 45.93182 v -2.19446 h 10.33086 v 2.19446 h 41.71169 v -2.19446 h 14.14585 v 1.95813 h 45.91494 v -1.95813 h 10.33086 v 1.95813 h 41.71169 v -1.95813 h 43.61919 v -3.25794 h -43.61919 v -2.41391 h -41.71169 v 2.41391 h -10.33086 v -2.41391 h -45.91494 v 2.41391 h -14.14585 v -2.19446 h -41.71169 v 2.19446 h -10.33086 v -2.19446 h -45.93182 v 2.19446 h -5.99257 c -0.69136,-6.00954 -5.15306,-10.65159 -10.55031,-10.65159 z"
       id="rect2985-1-6-7"
       inkscape:connector-curvature="0" />
    <path
       style="fill:#ffff00;fill-opacity:0.07762559;stroke:#f28136;stroke-width:1.15243256;stroke-miterlimit:4;stroke-dasharray:none;stroke-opacity:0.95433792"
       d="m 336.14798,344.92931 c -5.40229,0 -9.86612,4.63459 -10.55031,10.65159 h -18.82175 v 3.25794 h 18.82175 c 0.69301,6.00802 5.15497,10.65159 10.55031,10.65159 5.39725,0 9.85895,-4.64206 10.5503,-10.65159 h 5.99258 v 2.19446 h 45.93182 v -2.19446 h 10.33086 v 2.19446 h 41.7117 v -2.19446 h 14.14585 v 1.95813 h 45.91493 v -1.95813 h 10.33086 v 1.95813 h 41.7117 v -1.95813 h 43.61919 v -3.25794 h -43.61919 v -2.41391 h -41.7117 v 2.41391 h -10.33086 v -2.41391 h -45.91493 v 2.41391 h -14.14585 v -2.19446 h -41.7117 v 2.19446 h -10.33086 v -2.19446 h -45.93182 v 2.19446 h -5.99258 c -0.69135,-6.00954 -5.15305,-10.65159 -10.5503,-10.65159 z"
       id="rect2985-2"
       inkscape:connector-curvature="0" />
    <path
       style="fill:#ffff00;fill-opacity:0.07762559;stroke:#f28136;stroke-width:1.15243256;stroke-miterlimit:4;stroke-dasharray:none;stroke-opacity:0.95433792"
       d="m 336.14798,321.77979 c -5.40229,0 -9.86612,4.63459 -10.55031,10.65159 h -18.82175 v 3.25794 h 18.82175 c 0.69301,6.00802 5.15497,10.65159 10.55031,10.65159 5.39725,0 9.85895,-4.64206 10.5503,-10.65159 h 5.99258 v 2.19446 h 45.93182 v -2.19446 h 10.33086 v 2.19446 h 41.7117 v -2.19446 h 14.14585 v 1.95813 h 45.91493 v -1.95813 h 10.33086 v 1.95813 h 41.7117 v -1.95813 h 43.61919 v -3.25794 h -43.61919 v -2.41391 h -41.7117 v 2.41391 h -10.33086 v -2.41391 h -45.91493 v 2.41391 h -14.14585 v -2.19446 h -41.7117 v 2.19446 h -10.33086 v -2.19446 h -45.93182 v 2.19446 h -5.99258 c -0.69135,-6.00954 -5.15305,-10.65159 -10.5503,-10.65159 z"
       id="rect2985-2-0"
       inkscape:connector-curvature="0" />
    <path
       style="fill:#ffff00;fill-opacity:0.07762559;stroke:#f28136;stroke-width:1.15243256;stroke-miterlimit:4;stroke-dasharray:none;stroke-opacity:0.95433792"
       d="m 336.14798,391.2283 c -5.40229,0 -9.86612,4.63459 -10.55031,10.65159 h -18.82175 v 3.25794 h 18.82175 c 0.69301,6.00802 5.15497,10.65159 10.55031,10.65159 5.39725,0 9.85895,-4.64206 10.5503,-10.65159 h 5.99258 v 2.19446 h 45.93182 v -2.19446 h 10.33086 v 2.19446 h 41.7117 v -2.19446 h 14.14585 v 1.95813 h 45.91493 v -1.95813 h 10.33086 v 1.95813 h 41.7117 v -1.95813 h 43.61919 v -3.25794 h -43.61919 v -2.41391 h -41.7117 v 2.41391 h -10.33086 v -2.41391 h -45.91493 v 2.41391 h -14.14585 v -2.19446 h -41.7117 v 2.19446 h -10.33086 v -2.19446 h -45.93182 v 2.19446 h -5.99258 c -0.69135,-6.00954 -5.15305,-10.65159 -10.5503,-10.65159 z"
       id="rect2985-2-5"
       inkscape:connector-curvature="0" />
    <path
       style="fill:#ffff00;fill-opacity:0.07762559;stroke:#f28136;stroke-width:1.15243256;stroke-miterlimit:4;stroke-dasharray:none;stroke-opacity:0.95433792"
       d="m 336.14798,368.07882 c -5.40229,0 -9.86612,4.63459 -10.55031,10.65159 h -18.82175 v 3.25794 h 18.82175 c 0.69301,6.00802 5.15497,10.65159 10.55031,10.65159 5.39725,0 9.85895,-4.64206 10.5503,-10.65159 h 5.99258 v 2.19446 h 45.93182 v -2.19446 h 10.33086 v 2.19446 h 41.7117 v -2.19446 h 14.14585 v 1.95813 h 45.91493 v -1.95813 h 10.33086 v 1.95813 h 41.7117 v -1.95813 h 43.61919 v -3.25794 h -43.61919 v -2.41391 h -41.7117 v 2.41391 h -10.33086 v -2.41391 h -45.91493 v 2.41391 h -14.14585 v -2.19446 h -41.7117 v 2.19446 h -10.33086 v -2.19446 h -45.93182 v 2.19446 h -5.99258 c -0.69135,-6.00954 -5.15305,-10.65159 -10.5503,-10.65159 z"
       id="rect2985-2-0-8"
       inkscape:connector-curvature="0" />
    <g
       transform="translate(-0.1932273,-9.1360849)"
       id="g4743">
      <g
         transform="matrix(0.40030817,0,0,0.82383586,261.06087,77.595883)"
         id="g948">
        <path
           style="fill:none;fill-rule:evenodd;stroke:#000000;stroke-width:1px;stroke-linecap:butt;stroke-linejoin:miter;stroke-opacity:1"
           d="M -527.98797,660.73214 -506.5594,95.017861 h 25.71428 l 28.57143,567.142849 z"
           id="path856"
           inkscape:connector-curvature="0" />
        <path
           style="fill:none;fill-rule:evenodd;stroke:#000000;stroke-width:0.98172349px;stroke-linecap:butt;stroke-linejoin:miter;stroke-opacity:1"
           d="m -509.00626,168.0692 31.51503,-0.26786 0.70671,10.2473 -32.63402,0.37246 z"
           id="path858"
           inkscape:connector-curvature="0"
           sodipodi:nodetypes="ccccc" />
        <path
           style="fill:none;fill-rule:evenodd;stroke:#000000;stroke-width:1.05441701px;stroke-linecap:butt;stroke-linejoin:miter;stroke-opacity:1"
           d="m -511.34122,221.92557 36.82309,-1e-5 0.57037,10.38123 -37.64585,0.0153 z"
           id="path858-3"
           inkscape:connector-curvature="0"
           sodipodi:nodetypes="ccccc" />
        <path
           style="fill:none;fill-rule:evenodd;stroke:#000000;stroke-width:0.925165px;stroke-linecap:butt;stroke-linejoin:miter;stroke-opacity:1"
           d="m -507.77451,120.07807 27.98838,0.003 0.40459,10.40986 -28.75911,-0.061 z"
           id="path858-7"
           inkscape:connector-curvature="0"
           sodipodi:nodetypes="ccccc" />
        <path
           style="fill:none;fill-rule:evenodd;stroke:#000000;stroke-width:1.12612581px;stroke-linecap:butt;stroke-linejoin:miter;stroke-opacity:1"
           d="m -513.39031,283.31487 42.00193,-10e-6 0.65059,10.38123 -42.94041,0.0153 z"
           id="path858-3-5"
           inkscape:connector-curvature="0"
           sodipodi:nodetypes="ccccc" />
        <path
           style="fill:none;fill-rule:evenodd;stroke:#000000;stroke-width:1.20720911px;stroke-linecap:butt;stroke-linejoin:miter;stroke-opacity:1"
           d="m -516.24906,352.25778 48.26813,-1e-5 0.74765,10.38123 -49.34662,0.0153 z"
           id="path858-3-5-3"
           inkscape:connector-curvature="0"
           sodipodi:nodetypes="ccccc" />
        <path
           style="fill:none;fill-rule:evenodd;stroke:#000000;stroke-width:1.2869581px;stroke-linecap:butt;stroke-linejoin:miter;stroke-opacity:1"
           d="m -519.17305,430.62307 55.21316,-0.0446 0.49255,10.42588 -56.0817,0.0153 z"
           id="path858-3-5-3-5"
           inkscape:connector-curvature="0"
           sodipodi:nodetypes="ccccc" />
        <path
           style="fill:none;fill-rule:evenodd;stroke:#000000;stroke-width:1.35245681px;stroke-linecap:butt;stroke-linejoin:miter;stroke-opacity:1"
           d="m -521.74577,499.77111 60.97623,-0.0446 0.54395,10.42588 -61.93542,0.0153 z"
           id="path858-3-5-3-5-3"
           inkscape:connector-curvature="0"
           sodipodi:nodetypes="ccccc" />
      </g>
    </g>
  </g>
</svg>
