<?xml version="1.0" encoding="UTF-8" standalone="no"?>
<!-- Created with Inkscape (http://www.inkscape.org/) -->

<svg
   xmlns:dc="http://purl.org/dc/elements/1.1/"
   xmlns:cc="http://creativecommons.org/ns#"
   xmlns:rdf="http://www.w3.org/1999/02/22-rdf-syntax-ns#"
   xmlns:svg="http://www.w3.org/2000/svg"
   xmlns="http://www.w3.org/2000/svg"
   xmlns:xlink="http://www.w3.org/1999/xlink"
   xmlns:sodipodi="http://sodipodi.sourceforge.net/DTD/sodipodi-0.dtd"
   xmlns:inkscape="http://www.inkscape.org/namespaces/inkscape"
   width="586.19781"
   height="535.03125"
   id="svg2"
   version="1.1"
   inkscape:version="0.92.4 (unknown)"
   sodipodi:docname="AN-partial-severe-degenerated.svg">
  <defs
     id="defs4">
    <linearGradient
       gradientTransform="translate(-4.175531,-3.1328)"
       inkscape:collect="always"
       xlink:href="#linearGradient5656"
       id="linearGradient5666"
       x1="83.706581"
       y1="380.01785"
       x2="256.13843"
       y2="380.01785"
       gradientUnits="userSpaceOnUse" />
    <linearGradient
       inkscape:collect="always"
       id="linearGradient5656">
      <stop
         style="stop-color:#ff0000;stop-opacity:1;"
         offset="0"
         id="stop5658" />
      <stop
         style="stop-color:#ff0000;stop-opacity:0;"
         offset="1"
         id="stop5660" />
    </linearGradient>
    <linearGradient
       gradientTransform="translate(-4.175532,-9.321169)"
       inkscape:collect="always"
       xlink:href="#linearGradient4615"
       id="linearGradient4617"
       x1="83.706581"
       y1="270.91046"
       x2="256.13843"
       y2="270.91046"
       gradientUnits="userSpaceOnUse" />
    <linearGradient
       inkscape:collect="always"
       id="linearGradient4615">
      <stop
         style="stop-color:#1e00ff;stop-opacity:1;"
         offset="0"
         id="stop4611" />
      <stop
         style="stop-color:#1e00ff;stop-opacity:0;"
         offset="1"
         id="stop4613" />
    </linearGradient>
    <linearGradient
       inkscape:collect="always"
       xlink:href="#linearGradient4715"
       id="linearGradient4717"
       x1="75.646744"
       y1="445.19473"
       x2="248.0786"
       y2="445.19473"
       gradientUnits="userSpaceOnUse"
       gradientTransform="translate(3.884305,46.42143)" />
    <linearGradient
       inkscape:collect="always"
       id="linearGradient4715">
      <stop
         style="stop-color:#00ef00;stop-opacity:1;"
         offset="0"
         id="stop4711" />
      <stop
         style="stop-color:#00ef00;stop-opacity:0;"
         offset="1"
         id="stop4713" />
    </linearGradient>
  </defs>
  <sodipodi:namedview
     id="base"
     pagecolor="#ffffff"
     bordercolor="#666666"
     borderopacity="1.0"
     inkscape:pageopacity="0.0"
     inkscape:pageshadow="2"
     inkscape:zoom="0.98994949"
     inkscape:cx="37.737017"
     inkscape:cy="232.56869"
     inkscape:document-units="px"
     inkscape:current-layer="layer1"
     showgrid="false"
     fit-margin-top="0"
     fit-margin-left="0"
     fit-margin-right="0"
     fit-margin-bottom="0"
     inkscape:window-width="1920"
     inkscape:window-height="983"
     inkscape:window-x="0"
     inkscape:window-y="27"
     inkscape:window-maximized="1" />
  <metadata
     id="metadata7">
    <rdf:RDF>
      <cc:Work
         rdf:about="">
        <dc:format>image/svg+xml</dc:format>
        <dc:type
           rdf:resource="http://purl.org/dc/dcmitype/StillImage" />
        <dc:title />
      </cc:Work>
    </rdf:RDF>
  </metadata>
  <g
     inkscape:label="Layer 1"
     inkscape:groupmode="layer"
     id="layer1"
     transform="translate(-20.58345,-112.84375)">
    <path
       style="fill:url(#linearGradient5666);fill-opacity:1;fill-rule:evenodd;stroke:none;stroke-width:1.22813344px;stroke-linecap:butt;stroke-linejoin:miter;stroke-opacity:1"
       d="M 79.531053,363.31782 C 206.93791,271.66208 194.48561,205.74753 251.9629,126.96237 V 626.80772 C 205.61376,537.07496 206.36583,439.28841 79.531053,363.31782 Z"
       id="path3388"
       inkscape:connector-curvature="0"
       sodipodi:nodetypes="cccc" />
    <path
       style="fill:url(#linearGradient4617);fill-opacity:1;fill-rule:evenodd;stroke:none;stroke-width:0.83150232px;stroke-linecap:butt;stroke-linejoin:miter;stroke-opacity:1"
       d="M 79.531053,255.3702 C 206.93792,213.35605 194.48562,183.14144 251.96291,147.02705 V 376.15152 C 205.61377,335.01885 206.36584,290.19441 79.531053,255.3702 Z"
       id="path3388-5"
       inkscape:connector-curvature="0"
       sodipodi:nodetypes="cccc" />
    <g
       transform="translate(-0.1932273,-9.1360849)"
       id="g4743">
      <g
         transform="matrix(0.40030817,0,0,0.82383586,261.06087,77.595883)"
         id="g948">
        <path
           style="fill:none;fill-rule:evenodd;stroke:#000000;stroke-width:1px;stroke-linecap:butt;stroke-linejoin:miter;stroke-opacity:1"
           d="M -527.98797,660.73214 -506.5594,95.017861 h 25.71428 l 28.57143,567.142849 z"
           id="path856"
           inkscape:connector-curvature="0" />
        <path
           style="fill:none;fill-rule:evenodd;stroke:#000000;stroke-width:0.98172349px;stroke-linecap:butt;stroke-linejoin:miter;stroke-opacity:1"
           d="m -509.00626,168.0692 31.51503,-0.26786 0.70671,10.2473 -32.63402,0.37246 z"
           id="path858"
           inkscape:connector-curvature="0"
           sodipodi:nodetypes="ccccc" />
        <path
           style="fill:none;fill-rule:evenodd;stroke:#000000;stroke-width:1.05441701px;stroke-linecap:butt;stroke-linejoin:miter;stroke-opacity:1"
           d="m -511.34122,221.92557 36.82309,-1e-5 0.57037,10.38123 -37.64585,0.0153 z"
           id="path858-3"
           inkscape:connector-curvature="0"
           sodipodi:nodetypes="ccccc" />
        <path
           style="fill:none;fill-rule:evenodd;stroke:#000000;stroke-width:0.925165px;stroke-linecap:butt;stroke-linejoin:miter;stroke-opacity:1"
           d="m -507.77451,120.07807 27.98838,0.003 0.40459,10.40986 -28.75911,-0.061 z"
           id="path858-7"
           inkscape:connector-curvature="0"
           sodipodi:nodetypes="ccccc" />
        <path
           style="fill:none;fill-rule:evenodd;stroke:#000000;stroke-width:1.12612581px;stroke-linecap:butt;stroke-linejoin:miter;stroke-opacity:1"
           d="m -513.39031,283.31487 42.00193,-10e-6 0.65059,10.38123 -42.94041,0.0153 z"
           id="path858-3-5"
           inkscape:connector-curvature="0"
           sodipodi:nodetypes="ccccc" />
        <path
           style="fill:none;fill-rule:evenodd;stroke:#000000;stroke-width:1.20720911px;stroke-linecap:butt;stroke-linejoin:miter;stroke-opacity:1"
           d="m -516.24906,352.25778 48.26813,-1e-5 0.74765,10.38123 -49.34662,0.0153 z"
           id="path858-3-5-3"
           inkscape:connector-curvature="0"
           sodipodi:nodetypes="ccccc" />
        <path
           style="fill:none;fill-rule:evenodd;stroke:#000000;stroke-width:1.2869581px;stroke-linecap:butt;stroke-linejoin:miter;stroke-opacity:1"
           d="m -519.17305,430.62307 55.21316,-0.0446 0.49255,10.42588 -56.0817,0.0153 z"
           id="path858-3-5-3-5"
           inkscape:connector-curvature="0"
           sodipodi:nodetypes="ccccc" />
        <path
           style="fill:none;fill-rule:evenodd;stroke:#000000;stroke-width:1.35245681px;stroke-linecap:butt;stroke-linejoin:miter;stroke-opacity:1"
           d="m -521.74577,499.77111 60.97623,-0.0446 0.54395,10.42588 -61.93542,0.0153 z"
           id="path858-3-5-3-5-3"
           inkscape:connector-curvature="0"
           sodipodi:nodetypes="ccccc" />
      </g>
    </g>
    <path
       style="fill:url(#linearGradient4717);fill-opacity:1;fill-rule:evenodd;stroke:none;stroke-width:0.83150232px;stroke-linecap:butt;stroke-linejoin:miter;stroke-opacity:1"
       d="M 79.531053,485.39707 C 206.93791,443.38292 194.48561,413.16831 251.9629,377.05392 V 606.17839 C 205.61376,565.04572 206.36583,520.22128 79.531053,485.39707 Z"
       id="path3388-9"
       inkscape:connector-curvature="0"
       sodipodi:nodetypes="cccc" />
    <g
       id="g907">
      <path
         inkscape:connector-curvature="0"
         id="rect2985"
         d="m 336.14799,113.43427 c -5.40024,0 -9.86352,4.63792 -10.55031,10.65159 l -13.16678,0 0,-2.19447 -19.51385,0 0,2.19447 -10.49967,0 0,-2.19447 -19.51384,0 0,2.19447 -8.64281,0 0,-2.19447 -19.51385,0 0,2.19447 -4.82782,0 0,-2.19447 -21.48887,0 0,2.19447 -2.26198,0 0,3.27481 2.26198,0 0,2.17758 21.48887,0 0,-2.17758 4.82782,0 0,2.17758 19.51385,0 0,-2.17758 8.64281,0 0,2.17758 19.51384,0 0,-2.17758 10.49967,0 0,2.17758 19.51385,0 0,-2.17758 13.18366,0 c 0.69988,5.99923 5.14353,10.63471 10.53343,10.63471 5.39725,0 9.85895,-4.64205 10.5503,-10.65159 l 5.99258,0 0,2.19446 45.93181,0 0,-2.19446 10.33087,0 0,2.19446 41.71169,0 0,-2.19446 14.14585,0 0,1.95814 45.91494,0 0,-1.95814 10.33086,0 0,1.95814 41.71169,0 0,-1.95814 43.61919,0 0,-3.25793 -43.61919,0 0,-2.41391 -41.71169,0 0,2.41391 -10.33086,0 0,-2.41391 -45.91494,0 0,2.41391 -14.14585,0 0,-2.19447 -41.71169,0 0,2.19447 -10.33087,0 0,-2.19447 -45.93181,0 0,2.19447 -5.99258,0 c -0.69135,-6.00954 -5.15305,-10.65159 -10.5503,-10.65159 z"
         style="fill:#ffff00;fill-opacity:0.07762559;stroke:#f28136;stroke-width:1.15243256;stroke-miterlimit:4;stroke-opacity:0.95433792;stroke-dasharray:none" />
      <path
         inkscape:connector-curvature="0"
         id="rect2985-3"
         d="m 336.14798,136.5838 c -5.40024,0 -9.86351,4.63792 -10.55031,10.65159 l -13.16678,0 0,-2.19447 -19.51385,0 0,2.19447 -10.49967,0 0,-2.19447 -19.51384,0 0,2.19447 -8.64281,0 0,-2.19447 -19.51385,0 0,2.19447 -4.82782,0 0,-2.19447 -21.48886,0 0,2.19447 -2.26199,0 0,3.27481 2.26199,0 0,2.17758 21.48886,0 0,-2.17758 4.82782,0 0,2.17758 19.51385,0 0,-2.17758 8.64281,0 0,2.17758 19.51384,0 0,-2.17758 10.49967,0 0,2.17758 19.51385,0 0,-2.17758 13.18366,0 c 0.69988,5.99923 5.14353,10.63471 10.53343,10.63471 5.39726,0 9.85896,-4.64205 10.55031,-10.65159 l 5.99258,0 0,2.19446 45.93181,0 0,-2.19446 10.33087,0 0,2.19446 41.71169,0 0,-2.19446 14.14585,0 0,1.95814 45.91494,0 0,-1.95814 10.33086,0 0,1.95814 41.71169,0 0,-1.95814 43.61919,0 0,-3.25793 -43.61919,0 0,-2.41391 -41.71169,0 0,2.41391 -10.33086,0 0,-2.41391 -45.91494,0 0,2.41391 -14.14585,0 0,-2.19447 -41.71169,0 0,2.19447 -10.33087,0 0,-2.19447 -45.93181,0 0,2.19447 -5.99258,0 c -0.69135,-6.00954 -5.15305,-10.65159 -10.55031,-10.65159 z"
         style="fill:#ffff00;fill-opacity:0.07762559;stroke:#f28136;stroke-width:1.15243256;stroke-miterlimit:4;stroke-opacity:0.95433792;stroke-dasharray:none" />
      <path
         inkscape:connector-curvature="0"
         id="rect2985-22"
         d="m 336.14798,159.73328 c -5.40024,0 -9.86351,4.63792 -10.55031,10.65159 l -13.16678,0 0,-2.19447 -19.51385,0 0,2.19447 -10.49967,0 0,-2.19447 -19.51384,0 0,2.19447 -8.64281,0 0,-2.19447 -19.51385,0 0,2.19447 -4.82782,0 0,-2.19447 -21.48886,0 0,2.19447 -2.26199,0 0,3.27481 2.26199,0 0,2.17758 21.48886,0 0,-2.17758 4.82782,0 0,2.17758 19.51385,0 0,-2.17758 8.64281,0 0,2.17758 19.51384,0 0,-2.17758 10.49967,0 0,2.17758 19.51385,0 0,-2.17758 13.18366,0 c 0.69988,5.99923 5.14353,10.63471 10.53343,10.63471 5.39726,0 9.85896,-4.64205 10.55031,-10.65159 l 5.99258,0 0,2.19446 45.93181,0 0,-2.19446 10.33087,0 0,2.19446 41.71169,0 0,-2.19446 14.14585,0 0,1.95814 45.91494,0 0,-1.95814 10.33086,0 0,1.95814 41.71169,0 0,-1.95814 43.61919,0 0,-3.25793 -43.61919,0 0,-2.41391 -41.71169,0 0,2.41391 -10.33086,0 0,-2.41391 -45.91494,0 0,2.41391 -14.14585,0 0,-2.19447 -41.71169,0 0,2.19447 -10.33087,0 0,-2.19447 -45.93181,0 0,2.19447 -5.99258,0 c -0.69135,-6.00954 -5.15305,-10.65159 -10.55031,-10.65159 z"
         style="fill:#ffff00;fill-opacity:0.07762559;stroke:#f28136;stroke-width:1.15243256;stroke-miterlimit:4;stroke-opacity:0.95433792;stroke-dasharray:none" />
      <path
         inkscape:connector-curvature="0"
         id="rect2985-8"
         d="m 336.14798,229.18179 c -5.40024,0 -9.86351,4.63792 -10.55031,10.65159 l -13.16678,0 0,-2.19447 -19.51385,0 0,2.19447 -10.49967,0 0,-2.19447 -19.51384,0 0,2.19447 -8.64281,0 0,-2.19447 -19.51385,0 0,2.19447 -4.82782,0 0,-2.19447 -21.48886,0 0,2.19447 -2.26199,0 0,3.27481 2.26199,0 0,2.17758 21.48886,0 0,-2.17758 4.82782,0 0,2.17758 19.51385,0 0,-2.17758 8.64281,0 0,2.17758 19.51384,0 0,-2.17758 10.49967,0 0,2.17758 19.51385,0 0,-2.17758 13.18366,0 c 0.69988,5.99923 5.14353,10.63471 10.53343,10.63471 5.39726,0 9.85896,-4.64205 10.55031,-10.65159 l 5.99258,0 0,2.19446 45.93181,0 0,-2.19446 10.33087,0 0,2.19446 41.71169,0 0,-2.19446 14.14585,0 0,1.95814 45.91494,0 0,-1.95814 10.33086,0 0,1.95814 41.71169,0 0,-1.95814 43.61919,0 0,-3.25793 -43.61919,0 0,-2.41391 -41.71169,0 0,2.41391 -10.33086,0 0,-2.41391 -45.91494,0 0,2.41391 -14.14585,0 0,-2.19447 -41.71169,0 0,2.19447 -10.33087,0 0,-2.19447 -45.93181,0 0,2.19447 -5.99258,0 c -0.69135,-6.00954 -5.15305,-10.65159 -10.55031,-10.65159 z"
         style="fill:#ffff00;fill-opacity:0.07762559;stroke:#f28136;stroke-width:1.15243256;stroke-miterlimit:4;stroke-opacity:0.95433792;stroke-dasharray:none" />
      <path
         inkscape:connector-curvature="0"
         id="rect2985-13"
         d="m 336.14798,252.33129 c -5.40024,0 -9.86351,4.63792 -10.55031,10.65159 l -13.16678,0 0,-2.19447 -19.51385,0 0,2.19447 -10.49967,0 0,-2.19447 -19.51384,0 0,2.19447 -8.64281,0 0,-2.19447 -19.51385,0 0,2.19447 -4.82782,0 0,-2.19447 -21.48886,0 0,2.19447 -2.26199,0 0,3.27481 2.26199,0 0,2.17758 21.48886,0 0,-2.17758 4.82782,0 0,2.17758 19.51385,0 0,-2.17758 8.64281,0 0,2.17758 19.51384,0 0,-2.17758 10.49967,0 0,2.17758 19.51385,0 0,-2.17758 13.18366,0 c 0.69988,5.99923 5.14353,10.63471 10.53343,10.63471 5.39726,0 9.85896,-4.64205 10.55031,-10.65159 l 5.99258,0 0,2.19446 45.93181,0 0,-2.19446 10.33087,0 0,2.19446 41.71169,0 0,-2.19446 14.14585,0 0,1.95814 45.91494,0 0,-1.95814 10.33086,0 0,1.95814 41.71169,0 0,-1.95814 43.61919,0 0,-3.25793 -43.61919,0 0,-2.41391 -41.71169,0 0,2.41391 -10.33086,0 0,-2.41391 -45.91494,0 0,2.41391 -14.14585,0 0,-2.19447 -41.71169,0 0,2.19447 -10.33087,0 0,-2.19447 -45.93181,0 0,2.19447 -5.99258,0 c -0.69135,-6.00954 -5.15305,-10.65159 -10.55031,-10.65159 z"
         style="fill:#ffff00;fill-opacity:0.07762559;stroke:#f28136;stroke-width:1.15243256;stroke-miterlimit:4;stroke-opacity:0.95433792;stroke-dasharray:none" />
      <path
         inkscape:connector-curvature="0"
         id="rect2985-4"
         d="m 336.14798,275.4808 c -5.40024,0 -9.86351,4.63792 -10.55031,10.65159 l -13.16678,0 0,-2.19447 -19.51385,0 0,2.19447 -10.49967,0 0,-2.19447 -19.51384,0 0,2.19447 -8.64281,0 0,-2.19447 -19.51385,0 0,2.19447 -4.82782,0 0,-2.19447 -21.48886,0 0,2.19447 -2.26199,0 0,3.27481 2.26199,0 0,2.17758 21.48886,0 0,-2.17758 4.82782,0 0,2.17758 19.51385,0 0,-2.17758 8.64281,0 0,2.17758 19.51384,0 0,-2.17758 10.49967,0 0,2.17758 19.51385,0 0,-2.17758 13.18366,0 c 0.69988,5.99923 5.14353,10.63471 10.53343,10.63471 5.39726,0 9.85896,-4.64205 10.55031,-10.65159 l 5.99258,0 0,2.19446 45.93181,0 0,-2.19446 10.33087,0 0,2.19446 41.71169,0 0,-2.19446 14.14585,0 0,1.95814 45.91494,0 0,-1.95814 10.33086,0 0,1.95814 41.71169,0 0,-1.95814 43.61919,0 0,-3.25793 -43.61919,0 0,-2.41391 -41.71169,0 0,2.41391 -10.33086,0 0,-2.41391 -45.91494,0 0,2.41391 -14.14585,0 0,-2.19447 -41.71169,0 0,2.19447 -10.33087,0 0,-2.19447 -45.93181,0 0,2.19447 -5.99258,0 c -0.69135,-6.00954 -5.15305,-10.65159 -10.55031,-10.65159 z"
         style="fill:#ffff00;fill-opacity:0.07762559;stroke:#f28136;stroke-width:1.15243256;stroke-miterlimit:4;stroke-opacity:0.95433792;stroke-dasharray:none" />
      <path
         inkscape:connector-curvature="0"
         id="rect2985-23"
         d="m 336.14798,298.6303 c -5.40024,0 -9.86351,4.63792 -10.55031,10.65159 l -13.16678,0 0,-2.19447 -19.51385,0 0,2.19447 -10.49967,0 0,-2.19447 -19.51384,0 0,2.19447 -8.64281,0 0,-2.19447 -19.51385,0 0,2.19447 -4.82782,0 0,-2.19447 -21.48886,0 0,2.19447 -2.26199,0 0,3.27481 2.26199,0 0,2.17758 21.48886,0 0,-2.17758 4.82782,0 0,2.17758 19.51385,0 0,-2.17758 8.64281,0 0,2.17758 19.51384,0 0,-2.17758 10.49967,0 0,2.17758 19.51385,0 0,-2.17758 13.18366,0 c 0.69988,5.99923 5.14353,10.63471 10.53343,10.63471 5.39726,0 9.85896,-4.64205 10.55031,-10.65159 l 5.99258,0 0,2.19446 45.93181,0 0,-2.19446 10.33087,0 0,2.19446 41.71169,0 0,-2.19446 14.14585,0 0,1.95814 45.91494,0 0,-1.95814 10.33086,0 0,1.95814 41.71169,0 0,-1.95814 43.61919,0 0,-3.25793 -43.61919,0 0,-2.41391 -41.71169,0 0,2.41391 -10.33086,0 0,-2.41391 -45.91494,0 0,2.41391 -14.14585,0 0,-2.19447 -41.71169,0 0,2.19447 -10.33087,0 0,-2.19447 -45.93181,0 0,2.19447 -5.99258,0 c -0.69135,-6.00954 -5.15305,-10.65159 -10.55031,-10.65159 z"
         style="fill:#ffff00;fill-opacity:0.07762559;stroke:#f28136;stroke-width:1.15243256;stroke-miterlimit:4;stroke-opacity:0.95433792;stroke-dasharray:none" />
      <path
         inkscape:connector-curvature="0"
         id="rect2985-26-0"
         d="m 336.14798,414.37782 c -5.40024,0 -9.86351,4.63792 -10.55031,10.65159 l -13.16678,0 0,-2.19447 -19.51386,0 0,2.19447 -10.49967,0 0,-2.19447 -19.51384,0 0,2.19447 -8.64281,0 0,-2.19447 -19.51385,0 0,2.19447 -4.82782,0 0,-2.19447 -21.48886,0 0,2.19447 -2.26199,0 0,3.27481 2.26199,0 0,2.17758 21.48886,0 0,-2.17758 4.82782,0 0,2.17758 19.51385,0 0,-2.17758 8.64281,0 0,2.17758 19.51384,0 0,-2.17758 10.49967,0 0,2.17758 19.51386,0 0,-2.17758 13.18366,0 c 0.69988,5.99923 5.14353,10.63471 10.53343,10.63471 5.39726,0 9.85896,-4.64205 10.55031,-10.65159 l 5.99258,0 0,2.19446 45.93181,0 0,-2.19446 10.33087,0 0,2.19446 41.71169,0 0,-2.19446 14.14585,0 0,1.95814 45.91494,0 0,-1.95814 10.33086,0 0,1.95814 41.71169,0 0,-1.95814 43.61919,0 0,-3.25793 -43.61919,0 0,-2.41391 -41.71169,0 0,2.41391 -10.33086,0 0,-2.41391 -45.91494,0 0,2.41391 -14.14585,0 0,-2.19447 -41.71169,0 0,2.19447 -10.33087,0 0,-2.19447 -45.93181,0 0,2.19447 -5.99258,0 c -0.69135,-6.00954 -5.15305,-10.65159 -10.55031,-10.65159 z"
         style="fill:#ffff00;fill-opacity:0.07762559;stroke:#f28136;stroke-width:1.15243256;stroke-miterlimit:4;stroke-opacity:0.95433792;stroke-dasharray:none" />
      <path
         inkscape:connector-curvature="0"
         id="rect2985-8-5"
         d="m 336.14798,437.52733 c -5.40024,0 -9.86351,4.63792 -10.55031,10.65159 l -13.16678,0 0,-2.19447 -19.51386,0 0,2.19447 -10.49967,0 0,-2.19447 -19.51384,0 0,2.19447 -8.64281,0 0,-2.19447 -19.51385,0 0,2.19447 -4.82782,0 0,-2.19447 -21.48886,0 0,2.19447 -2.26199,0 0,3.27481 2.26199,0 0,2.17758 21.48886,0 0,-2.17758 4.82782,0 0,2.17758 19.51385,0 0,-2.17758 8.64281,0 0,2.17758 19.51384,0 0,-2.17758 10.49967,0 0,2.17758 19.51386,0 0,-2.17758 13.18366,0 c 0.69988,5.99923 5.14353,10.63471 10.53343,10.63471 5.39726,0 9.85896,-4.64205 10.55031,-10.65159 l 5.99258,0 0,2.19446 45.93181,0 0,-2.19446 10.33087,0 0,2.19446 41.71169,0 0,-2.19446 14.14585,0 0,1.95814 45.91494,0 0,-1.95814 10.33086,0 0,1.95814 41.71169,0 0,-1.95814 43.61919,0 0,-3.25793 -43.61919,0 0,-2.41391 -41.71169,0 0,2.41391 -10.33086,0 0,-2.41391 -45.91494,0 0,2.41391 -14.14585,0 0,-2.19447 -41.71169,0 0,2.19447 -10.33087,0 0,-2.19447 -45.93181,0 0,2.19447 -5.99258,0 c -0.69135,-6.00954 -5.15305,-10.65159 -10.55031,-10.65159 z"
         style="fill:#ffff00;fill-opacity:0.07762559;stroke:#f28136;stroke-width:1.15243256;stroke-miterlimit:4;stroke-opacity:0.95433792;stroke-dasharray:none" />
      <path
         inkscape:connector-curvature="0"
         id="rect2985-4-9"
         d="m 336.14798,506.97583 c -5.40024,0 -9.86351,4.63792 -10.55031,10.65159 l -13.16678,0 0,-2.19447 -19.51386,0 0,2.19447 -10.49967,0 0,-2.19447 -19.51384,0 0,2.19447 -8.64281,0 0,-2.19447 -19.51385,0 0,2.19447 -4.82782,0 0,-2.19447 -21.48886,0 0,2.19447 -2.26199,0 0,3.27481 2.26199,0 0,2.17758 21.48886,0 0,-2.17758 4.82782,0 0,2.17758 19.51385,0 0,-2.17758 8.64281,0 0,2.17758 19.51384,0 0,-2.17758 10.49967,0 0,2.17758 19.51386,0 0,-2.17758 13.18366,0 c 0.69988,5.99923 5.14353,10.63471 10.53343,10.63471 5.39726,0 9.85896,-4.64205 10.55031,-10.65159 l 5.99258,0 0,2.19446 45.93181,0 0,-2.19446 10.33087,0 0,2.19446 41.71169,0 0,-2.19446 14.14585,0 0,1.95814 45.91494,0 0,-1.95814 10.33086,0 0,1.95814 41.71169,0 0,-1.95814 43.61919,0 0,-3.25793 -43.61919,0 0,-2.41391 -41.71169,0 0,2.41391 -10.33086,0 0,-2.41391 -45.91494,0 0,2.41391 -14.14585,0 0,-2.19447 -41.71169,0 0,2.19447 -10.33087,0 0,-2.19447 -45.93181,0 0,2.19447 -5.99258,0 c -0.69135,-6.00954 -5.15305,-10.65159 -10.55031,-10.65159 z"
         style="fill:#ffff00;fill-opacity:0.07762559;stroke:#f28136;stroke-width:1.15243256;stroke-miterlimit:4;stroke-opacity:0.95433792;stroke-dasharray:none" />
      <path
         inkscape:connector-curvature="0"
         id="rect2985-23-8"
         d="m 336.14798,530.12532 c -5.40024,0 -9.86351,4.63792 -10.55031,10.65159 l -13.16678,0 0,-2.19447 -19.51386,0 0,2.19447 -10.49967,0 0,-2.19447 -19.51384,0 0,2.19447 -8.64281,0 0,-2.19447 -19.51385,0 0,2.19447 -4.82782,0 0,-2.19447 -21.48886,0 0,2.19447 -2.26199,0 0,3.27481 2.26199,0 0,2.17758 21.48886,0 0,-2.17758 4.82782,0 0,2.17758 19.51385,0 0,-2.17758 8.64281,0 0,2.17758 19.51384,0 0,-2.17758 10.49967,0 0,2.17758 19.51386,0 0,-2.17758 13.18366,0 c 0.69988,5.99923 5.14353,10.63471 10.53343,10.63471 5.39726,0 9.85896,-4.64205 10.55031,-10.65159 l 5.99258,0 0,2.19446 45.93181,0 0,-2.19446 10.33087,0 0,2.19446 41.71169,0 0,-2.19446 14.14585,0 0,1.95814 45.91494,0 0,-1.95814 10.33086,0 0,1.95814 41.71169,0 0,-1.95814 43.61919,0 0,-3.25793 -43.61919,0 0,-2.41391 -41.71169,0 0,2.41391 -10.33086,0 0,-2.41391 -45.91494,0 0,2.41391 -14.14585,0 0,-2.19447 -41.71169,0 0,2.19447 -10.33087,0 0,-2.19447 -45.93181,0 0,2.19447 -5.99258,0 c -0.69135,-6.00954 -5.15305,-10.65159 -10.55031,-10.65159 z"
         style="fill:#ffff00;fill-opacity:0.07762559;stroke:#f28136;stroke-width:1.15243256;stroke-miterlimit:4;stroke-opacity:0.95433792;stroke-dasharray:none" />
      <path
         inkscape:connector-curvature="0"
         id="rect2985-7-6"
         d="m 336.14798,553.27483 c -5.40024,0 -9.86351,4.63792 -10.55031,10.65159 l -13.16678,0 0,-2.19447 -19.51386,0 0,2.19447 -10.49967,0 0,-2.19447 -19.51384,0 0,2.19447 -8.64281,0 0,-2.19447 -19.51385,0 0,2.19447 -4.82782,0 0,-2.19447 -21.48886,0 0,2.19447 -2.26199,0 0,3.27481 2.26199,0 0,2.17758 21.48886,0 0,-2.17758 4.82782,0 0,2.17758 19.51385,0 0,-2.17758 8.64281,0 0,2.17758 19.51384,0 0,-2.17758 10.49967,0 0,2.17758 19.51386,0 0,-2.17758 13.18366,0 c 0.69988,5.99923 5.14353,10.63471 10.53343,10.63471 5.39726,0 9.85896,-4.64205 10.55031,-10.65159 l 5.99258,0 0,2.19446 45.93181,0 0,-2.19446 10.33087,0 0,2.19446 41.71169,0 0,-2.19446 14.14585,0 0,1.95814 45.91494,0 0,-1.95814 10.33086,0 0,1.95814 41.71169,0 0,-1.95814 43.61919,0 0,-3.25793 -43.61919,0 0,-2.41391 -41.71169,0 0,2.41391 -10.33086,0 0,-2.41391 -45.91494,0 0,2.41391 -14.14585,0 0,-2.19447 -41.71169,0 0,2.19447 -10.33087,0 0,-2.19447 -45.93181,0 0,2.19447 -5.99258,0 c -0.69135,-6.00954 -5.15305,-10.65159 -10.55031,-10.65159 z"
         style="fill:#ffff00;fill-opacity:0.07762559;stroke:#f28136;stroke-width:1.15243256;stroke-miterlimit:4;stroke-opacity:0.95433792;stroke-dasharray:none" />
      <path
         inkscape:connector-curvature="0"
         id="rect2985-4-9-6"
         d="m 336.14798,576.42433 c -5.40024,0 -9.86351,4.63792 -10.55031,10.65159 l -13.16678,0 0,-2.19447 -19.51386,0 0,2.19447 -10.49967,0 0,-2.19447 -19.51384,0 0,2.19447 -8.64281,0 0,-2.19447 -19.51385,0 0,2.19447 -4.82782,0 0,-2.19447 -21.48886,0 0,2.19447 -2.26199,0 0,3.27481 2.26199,0 0,2.17758 21.48886,0 0,-2.17758 4.82782,0 0,2.17758 19.51385,0 0,-2.17758 8.64281,0 0,2.17758 19.51384,0 0,-2.17758 10.49967,0 0,2.17758 19.51386,0 0,-2.17758 13.18366,0 c 0.69988,5.99923 5.14353,10.63471 10.53343,10.63471 5.39726,0 9.85896,-4.64205 10.55031,-10.65159 l 5.99258,0 0,2.19446 45.93181,0 0,-2.19446 10.33087,0 0,2.19446 41.71169,0 0,-2.19446 14.14585,0 0,1.95814 45.91494,0 0,-1.95814 10.33086,0 0,1.95814 41.71169,0 0,-1.95814 43.61919,0 0,-3.25793 -43.61919,0 0,-2.41391 -41.71169,0 0,2.41391 -10.33086,0 0,-2.41391 -45.91494,0 0,2.41391 -14.14585,0 0,-2.19447 -41.71169,0 0,2.19447 -10.33087,0 0,-2.19447 -45.93181,0 0,2.19447 -5.99258,0 c -0.69135,-6.00954 -5.15305,-10.65159 -10.55031,-10.65159 z"
         style="fill:#ffff00;fill-opacity:0.07762559;stroke:#f28136;stroke-width:1.15243256;stroke-miterlimit:4;stroke-opacity:0.95433792;stroke-dasharray:none" />
      <path
         inkscape:connector-curvature="0"
         id="rect2985-23-8-5"
         d="m 336.14798,599.57383 c -5.40024,0 -9.86351,4.63792 -10.55031,10.65159 l -13.16678,0 0,-2.19447 -19.51386,0 0,2.19447 -10.49967,0 0,-2.19447 -19.51384,0 0,2.19447 -8.64281,0 0,-2.19447 -19.51385,0 0,2.19447 -4.82782,0 0,-2.19447 -21.48886,0 0,2.19447 -2.26199,0 0,3.27481 2.26199,0 0,2.17758 21.48886,0 0,-2.17758 4.82782,0 0,2.17758 19.51385,0 0,-2.17758 8.64281,0 0,2.17758 19.51384,0 0,-2.17758 10.49967,0 0,2.17758 19.51386,0 0,-2.17758 13.18366,0 c 0.69988,5.99923 5.14353,10.63471 10.53343,10.63471 5.39726,0 9.85896,-4.64205 10.55031,-10.65159 l 5.99258,0 0,2.19446 45.93181,0 0,-2.19446 10.33087,0 0,2.19446 41.71169,0 0,-2.19446 14.14585,0 0,1.95814 45.91494,0 0,-1.95814 10.33086,0 0,1.95814 41.71169,0 0,-1.95814 43.61919,0 0,-3.25793 -43.61919,0 0,-2.41391 -41.71169,0 0,2.41391 -10.33086,0 0,-2.41391 -45.91494,0 0,2.41391 -14.14585,0 0,-2.19447 -41.71169,0 0,2.19447 -10.33087,0 0,-2.19447 -45.93181,0 0,2.19447 -5.99258,0 c -0.69135,-6.00954 -5.15305,-10.65159 -10.55031,-10.65159 z"
         style="fill:#ffff00;fill-opacity:0.07762559;stroke:#f28136;stroke-width:1.15243256;stroke-miterlimit:4;stroke-opacity:0.95433792;stroke-dasharray:none" />
      <path
         inkscape:connector-curvature="0"
         id="rect2985-7-6-9"
         d="m 336.14798,622.72333 c -5.40024,0 -9.86351,4.63792 -10.55031,10.65159 l -13.16678,0 0,-2.19447 -19.51386,0 0,2.19447 -10.49967,0 0,-2.19447 -19.51384,0 0,2.19447 -8.64281,0 0,-2.19447 -19.51385,0 0,2.19447 -4.82782,0 0,-2.19447 -21.48886,0 0,2.19447 -2.26199,0 0,3.27481 2.26199,0 0,2.17758 21.48886,0 0,-2.17758 4.82782,0 0,2.17758 19.51385,0 0,-2.17758 8.64281,0 0,2.17758 19.51384,0 0,-2.17758 10.49967,0 0,2.17758 19.51386,0 0,-2.17758 13.18366,0 c 0.69988,5.99923 5.14353,10.63471 10.53343,10.63471 5.39726,0 9.85896,-4.64205 10.55031,-10.65159 l 5.99258,0 0,2.19446 45.93181,0 0,-2.19446 10.33087,0 0,2.19446 41.71169,0 0,-2.19446 14.14585,0 0,1.95814 45.91494,0 0,-1.95814 10.33086,0 0,1.95814 41.71169,0 0,-1.95814 43.61919,0 0,-3.25793 -43.61919,0 0,-2.41391 -41.71169,0 0,2.41391 -10.33086,0 0,-2.41391 -45.91494,0 0,2.41391 -14.14585,0 0,-2.19447 -41.71169,0 0,2.19447 -10.33087,0 0,-2.19447 -45.93181,0 0,2.19447 -5.99258,0 c -0.69135,-6.00954 -5.15305,-10.65159 -10.55031,-10.65159 z"
         style="fill:#ffff00;fill-opacity:0.07762559;stroke:#f28136;stroke-width:1.15243256;stroke-miterlimit:4;stroke-opacity:0.95433792;stroke-dasharray:none" />
      <path
         inkscape:connector-curvature="0"
         id="rect2985-1-5"
         d="m 336.14798,460.67683 c -5.40024,0 -9.86351,4.63793 -10.55031,10.65159 l -13.18366,0 0,-2.17758 -19.49698,0 0,2.17758 -17.06617,0 0,-2.17758 -19.49697,0 0,2.17758 -17.57259,0 0,3.27482 17.57259,0 0,2.17758 19.49697,0 0,-2.17758 17.06617,0 0,2.17758 19.49698,0 0,-2.17758 13.20054,0 c 0.69766,6.00207 5.14177,10.63471 10.53343,10.63471 5.39725,0 9.85896,-4.64206 10.55032,-10.65159 l 5.99257,0 0,2.19446 45.93182,0 0,-2.19446 10.33086,0 0,2.19446 41.71169,0 0,-2.19446 14.14585,0 0,1.95813 45.91494,0 0,-1.95813 10.33086,0 0,1.95813 41.71169,0 0,-1.95813 43.61919,0 0,-3.25794 -43.61919,0 0,-2.41391 -41.71169,0 0,2.41391 -10.33086,0 0,-2.41391 -45.91494,0 0,2.41391 -14.14585,0 0,-2.19446 -41.71169,0 0,2.19446 -10.33086,0 0,-2.19446 -45.93182,0 0,2.19446 -5.99257,0 c -0.69136,-6.00954 -5.15307,-10.65159 -10.55032,-10.65159 z"
         style="fill:#ffff00;fill-opacity:0.07762559;stroke:#f28136;stroke-width:1.15243256;stroke-miterlimit:4;stroke-opacity:0.95433792;stroke-dasharray:none" />
      <path
         inkscape:connector-curvature="0"
         id="rect2985-1-6-3"
         d="m 336.14798,483.82633 c -5.40024,0 -9.86351,4.63793 -10.55031,10.65159 l -13.18366,0 0,-2.17758 -19.49699,0 0,2.17758 -17.06617,0 0,-2.17758 -19.49697,0 0,2.17758 -17.57259,0 0,3.27482 17.57259,0 0,2.17758 19.49697,0 0,-2.17758 17.06617,0 0,2.17758 19.49699,0 0,-2.17758 13.20054,0 c 0.69766,6.00207 5.14177,10.63471 10.53343,10.63471 5.39726,0 9.85896,-4.64206 10.55032,-10.65159 l 5.99257,0 0,2.19446 45.93182,0 0,-2.19446 10.33086,0 0,2.19446 41.71169,0 0,-2.19446 14.14585,0 0,1.95813 45.91494,0 0,-1.95813 10.33086,0 0,1.95813 41.71169,0 0,-1.95813 43.61919,0 0,-3.25794 -43.61919,0 0,-2.41391 -41.71169,0 0,2.41391 -10.33086,0 0,-2.41391 -45.91494,0 0,2.41391 -14.14585,0 0,-2.19446 -41.71169,0 0,2.19446 -10.33086,0 0,-2.19446 -45.93182,0 0,2.19446 -5.99257,0 c -0.69136,-6.00954 -5.15306,-10.65159 -10.55032,-10.65159 z"
         style="fill:#ffff00;fill-opacity:0.07762559;stroke:#f28136;stroke-width:1.15243256;stroke-miterlimit:4;stroke-opacity:0.95433792;stroke-dasharray:none" />
      <path
         inkscape:connector-curvature="0"
         id="rect2985-1-3"
         d="m 336.14799,182.88278 c -5.40024,0 -9.86351,4.63793 -10.55031,10.65159 l -13.18367,0 0,-2.17758 -19.49698,0 0,2.17758 -17.06617,0 0,-2.17758 -19.49697,0 0,2.17758 -17.57259,0 0,3.27482 17.57259,0 0,2.17758 19.49697,0 0,-2.17758 17.06617,0 0,2.17758 19.49698,0 0,-2.17758 13.20055,0 c 0.69766,6.00207 5.14177,10.63471 10.53343,10.63471 5.39725,0 9.85895,-4.64206 10.55031,-10.65159 l 5.99257,0 0,2.19446 45.93182,0 0,-2.19446 10.33086,0 0,2.19446 41.71169,0 0,-2.19446 14.14585,0 0,1.95813 45.91494,0 0,-1.95813 10.33086,0 0,1.95813 41.71169,0 0,-1.95813 43.61919,0 0,-3.25794 -43.61919,0 0,-2.41391 -41.71169,0 0,2.41391 -10.33086,0 0,-2.41391 -45.91494,0 0,2.41391 -14.14585,0 0,-2.19446 -41.71169,0 0,2.19446 -10.33086,0 0,-2.19446 -45.93182,0 0,2.19446 -5.99257,0 c -0.69136,-6.00954 -5.15306,-10.65159 -10.55031,-10.65159 z"
         style="fill:#ffff00;fill-opacity:0.07762559;stroke:#f28136;stroke-width:1.15243256;stroke-miterlimit:4;stroke-opacity:0.95433792;stroke-dasharray:none" />
      <path
         inkscape:connector-curvature="0"
         id="rect2985-1-6-7"
         d="m 336.14799,206.03226 c -5.40024,0 -9.86351,4.63793 -10.55031,10.65159 l -13.18367,0 0,-2.17758 -19.49699,0 0,2.17758 -17.06617,0 0,-2.17758 -19.49697,0 0,2.17758 -17.57259,0 0,3.27482 17.57259,0 0,2.17758 19.49697,0 0,-2.17758 17.06617,0 0,2.17758 19.49699,0 0,-2.17758 13.20055,0 c 0.69766,6.00207 5.14177,10.63471 10.53343,10.63471 5.39725,0 9.85895,-4.64206 10.55031,-10.65159 l 5.99257,0 0,2.19446 45.93182,0 0,-2.19446 10.33086,0 0,2.19446 41.71169,0 0,-2.19446 14.14585,0 0,1.95813 45.91494,0 0,-1.95813 10.33086,0 0,1.95813 41.71169,0 0,-1.95813 43.61919,0 0,-3.25794 -43.61919,0 0,-2.41391 -41.71169,0 0,2.41391 -10.33086,0 0,-2.41391 -45.91494,0 0,2.41391 -14.14585,0 0,-2.19446 -41.71169,0 0,2.19446 -10.33086,0 0,-2.19446 -45.93182,0 0,2.19446 -5.99257,0 c -0.69136,-6.00954 -5.15306,-10.65159 -10.55031,-10.65159 z"
         style="fill:#ffff00;fill-opacity:0.07762559;stroke:#f28136;stroke-width:1.15243256;stroke-miterlimit:4;stroke-opacity:0.95433792;stroke-dasharray:none" />
      <path
         inkscape:connector-curvature="0"
         id="rect2985-2"
         d="m 336.14798,344.92931 c -5.40229,0 -9.86612,4.63459 -10.55031,10.65159 l -18.82175,0 0,3.25794 18.82175,0 c 0.69301,6.00802 5.15497,10.65159 10.55031,10.65159 5.39725,0 9.85895,-4.64206 10.5503,-10.65159 l 5.99258,0 0,2.19446 45.93182,0 0,-2.19446 10.33086,0 0,2.19446 41.7117,0 0,-2.19446 14.14585,0 0,1.95813 45.91493,0 0,-1.95813 10.33086,0 0,1.95813 41.7117,0 0,-1.95813 43.61919,0 0,-3.25794 -43.61919,0 0,-2.41391 -41.7117,0 0,2.41391 -10.33086,0 0,-2.41391 -45.91493,0 0,2.41391 -14.14585,0 0,-2.19446 -41.7117,0 0,2.19446 -10.33086,0 0,-2.19446 -45.93182,0 0,2.19446 -5.99258,0 c -0.69135,-6.00954 -5.15305,-10.65159 -10.5503,-10.65159 z"
         style="fill:#ffff00;fill-opacity:0.07762559;stroke:#f28136;stroke-width:1.15243256;stroke-miterlimit:4;stroke-opacity:0.95433792;stroke-dasharray:none" />
      <path
         inkscape:connector-curvature="0"
         id="rect2985-2-0"
         d="m 336.14798,321.77979 c -5.40229,0 -9.86612,4.63459 -10.55031,10.65159 l -18.82175,0 0,3.25794 18.82175,0 c 0.69301,6.00802 5.15497,10.65159 10.55031,10.65159 5.39725,0 9.85895,-4.64206 10.5503,-10.65159 l 5.99258,0 0,2.19446 45.93182,0 0,-2.19446 10.33086,0 0,2.19446 41.7117,0 0,-2.19446 14.14585,0 0,1.95813 45.91493,0 0,-1.95813 10.33086,0 0,1.95813 41.7117,0 0,-1.95813 43.61919,0 0,-3.25794 -43.61919,0 0,-2.41391 -41.7117,0 0,2.41391 -10.33086,0 0,-2.41391 -45.91493,0 0,2.41391 -14.14585,0 0,-2.19446 -41.7117,0 0,2.19446 -10.33086,0 0,-2.19446 -45.93182,0 0,2.19446 -5.99258,0 c -0.69135,-6.00954 -5.15305,-10.65159 -10.5503,-10.65159 z"
         style="fill:#ffff00;fill-opacity:0.07762559;stroke:#f28136;stroke-width:1.15243256;stroke-miterlimit:4;stroke-opacity:0.95433792;stroke-dasharray:none" />
      <path
         inkscape:connector-curvature="0"
         id="rect2985-2-5"
         d="m 336.14798,391.2283 c -5.40229,0 -9.86612,4.63459 -10.55031,10.65159 l -18.82175,0 0,3.25794 18.82175,0 c 0.69301,6.00802 5.15497,10.65159 10.55031,10.65159 5.39725,0 9.85895,-4.64206 10.5503,-10.65159 l 5.99258,0 0,2.19446 45.93182,0 0,-2.19446 10.33086,0 0,2.19446 41.7117,0 0,-2.19446 14.14585,0 0,1.95813 45.91493,0 0,-1.95813 10.33086,0 0,1.95813 41.7117,0 0,-1.95813 43.61919,0 0,-3.25794 -43.61919,0 0,-2.41391 -41.7117,0 0,2.41391 -10.33086,0 0,-2.41391 -45.91493,0 0,2.41391 -14.14585,0 0,-2.19446 -41.7117,0 0,2.19446 -10.33086,0 0,-2.19446 -45.93182,0 0,2.19446 -5.99258,0 c -0.69135,-6.00954 -5.15305,-10.65159 -10.5503,-10.65159 z"
         style="fill:#ffff00;fill-opacity:0.07762559;stroke:#f28136;stroke-width:1.15243256;stroke-miterlimit:4;stroke-opacity:0.95433792;stroke-dasharray:none" />
      <path
         inkscape:connector-curvature="0"
         id="rect2985-2-0-8"
         d="m 336.14798,368.07882 c -5.40229,0 -9.86612,4.63459 -10.55031,10.65159 l -18.82175,0 0,3.25794 18.82175,0 c 0.69301,6.00802 5.15497,10.65159 10.55031,10.65159 5.39725,0 9.85895,-4.64206 10.5503,-10.65159 l 5.99258,0 0,2.19446 45.93182,0 0,-2.19446 10.33086,0 0,2.19446 41.7117,0 0,-2.19446 14.14585,0 0,1.95813 45.91493,0 0,-1.95813 10.33086,0 0,1.95813 41.7117,0 0,-1.95813 43.61919,0 0,-3.25794 -43.61919,0 0,-2.41391 -41.7117,0 0,2.41391 -10.33086,0 0,-2.41391 -45.91493,0 0,2.41391 -14.14585,0 0,-2.19446 -41.7117,0 0,2.19446 -10.33086,0 0,-2.19446 -45.93182,0 0,2.19446 -5.99258,0 c -0.69135,-6.00954 -5.15305,-10.65159 -10.5503,-10.65159 z"
         style="fill:#ffff00;fill-opacity:0.07762559;stroke:#f28136;stroke-width:1.15243256;stroke-miterlimit:4;stroke-opacity:0.95433792;stroke-dasharray:none" />
      <circle
         r="4.2857141"
         cy="217.31363"
         cx="281.55078"
         id="path5693"
         style="fill:#7d0086;fill-opacity:1;stroke:none" />
      <circle
         r="4.2857141"
         cy="242.31364"
         cx="231.55078"
         id="path5693-3"
         style="fill:#7d0086;fill-opacity:1;stroke:none" />
      <circle
         r="4.2857141"
         cy="309.59933"
         cx="229.12219"
         id="path5693-6"
         style="fill:#ff0000;fill-opacity:1;stroke:none" />
      <circle
         r="4.2857141"
         cy="287.88504"
         cx="255.40793"
         id="path5693-7"
         style="fill:#7d0086;fill-opacity:1;stroke:none" />
      <circle
         r="4.2857141"
         cy="427.59933"
         cx="230.97937"
         id="path5693-93"
         style="fill:#ff0000;fill-opacity:1;stroke:none" />
      <circle
         r="4.2857141"
         cy="449.45648"
         cx="231.69363"
         id="path5693-60"
         style="fill:#ff0000;fill-opacity:1;stroke:none" />
      <circle
         r="4.2857141"
         cy="472.88504"
         cx="257.97934"
         id="path5693-626"
         style="fill:#ff0000;fill-opacity:1;stroke:none" />
      <circle
         r="4.2857141"
         cy="264.45648"
         cx="256.97937"
         id="path5693-79"
         style="fill:#7d0086;fill-opacity:1;stroke:none" />
      <circle
         r="4.2857141"
         cy="493.3913"
         cx="272.8678"
         id="path5693-9"
         style="fill:#80844f;fill-opacity:1;stroke:none" />
      <circle
         r="4.2857141"
         cy="518.3913"
         cx="222.86778"
         id="path5693-3-1"
         style="fill:#80844f;fill-opacity:1;stroke:none" />
      <circle
         r="4.2857141"
         cy="563.96271"
         cx="246.72493"
         id="path5693-7-2"
         style="fill:#80844f;fill-opacity:1;stroke:none" />
      <circle
         r="4.2857141"
         cy="540.53412"
         cx="248.29637"
         id="path5693-79-7"
         style="fill:#80844f;fill-opacity:1;stroke:none" />
    </g>
  </g>
</svg>
